<svg xmlns="http://www.w3.org/2000/svg" width="203.263" height="50.122" xmlns:v="https://vecta.io/nano"><path d="M42.521 30.209c.752-3.588 3.405-6.174 7.32-6.174s6.528 2.318 7.2 6.174h-14.52zM18.307 42.113c-1.066.191-2.36.232-3.416.232H8.715V26.249h5.527c1.742 0 3.715.199 4.848.49 3.877 1.024 6.099 3.799 6.099 7.483 0 3.805-2.046 7.018-6.882 7.891M8.715 6.663h2.358c2.276 0 4.073.247 5.372.748 2.551.997 3.768 3.022 3.768 5.565.006 2.142-.819 5.525-5.334 6.444-.756.151-1.843.235-3.382.235H8.715V6.663zm56.296 22.275a13.74 13.74 0 0 0-2.605-5.728c-2.597-3.433-6.804-5.596-12.499-5.596-8.853 0-14.296 6.006-15.908 12.352-1.443-4.469-5.319-7.485-9.414-8.758 3.081-2.245 4.693-5.46 4.693-9.127 0-3.403-1.416-6.499-3.786-8.517C22.013.604 17.268.001 11.425.001H0V49.33h9.81c2.882.013 5.701-.01 8.329-.113 8.321-.333 14.013-4.517 15.833-10.804.626 2.798 1.828 5.074 3.401 6.8 3.204 3.531 7.849 4.911 12.524 4.911 5.755 0 9.921-1.678 12.765-4.233l-4.069-4.785c-2.048 1.546-4.683 2.457-7.64 2.457-5.797-.019-8.354-3.692-8.587-7.215h22.645V49.33h8.482V.246h-8.482v28.692zm14.144 20.391h8.333V.245h-8.333v49.084z" fill="#1162a5"/><path d="M121.525 20.845c0-.306-.132-.568-.268-.568-.222 0-.448.128-.76.936l-9.037 20.7h-2.674l-9.037-20.7c-.178-.406-.398-.936-.712-.936-.182 0-.31.128-.31.53V49.17h-2.898V20.808c0-1.916 1.294-3.248 3.118-3.248 1.784 0 2.85 1.11 3.562 2.806l7.617 17.63 7.613-17.63c.626-1.384 1.692-2.806 3.655-2.806 2.002 0 3.026 1.422 3.026 3.336v28.275h-2.894V20.845zm39.94 9.006c-5.03 0-7.881 3.738-7.881 8.507 0 4.716 2.492 8.639 7.751 8.639 3.162 0 5.252-1.068 7.035-2.36v-8.421c0-3.648-2.804-6.365-6.905-6.365m9.801 19.322h-2.674v-.578c0-.978-.804-.8-1.426-.534-1.646.76-3.874 1.38-6.011 1.38-6.773 0-10.469-4.721-10.469-11.039 0-6.235 4.281-11.049 10.649-11.049 3.386 0 5.652 1.116 7.257 2.716V17.421h2.674v31.751zm5.049-21.377h2.896v21.376h-2.896V27.796zm1.472-4.233c-1.288 0-1.912-.66-1.912-1.956 0-1.288.624-1.916 1.912-1.916s1.872.628 1.872 1.916c0 1.296-.58 1.956-1.872 1.956m15.987 6.154c-5.477 0-8.193 4.052-8.193 8.907 0 4.899 2.762 8.371 8.065 8.371 2.538 0 5.03-.934 6.767-1.914v-8.553c0-4.277-3.028-6.811-6.639-6.811m9.489-1.923V49.17h-2.538l-.046-.172c-.176-.938-.888-.938-1.472-.762-.932.264-1.822.582-2.76.85-.934.222-1.912.398-3.07.398-6.501 0-10.729-4.186-10.729-10.781 0-6.279 4.094-11.481 10.999-11.481 3.074 0 5.386 1.066 6.899 2.8v-2.228h2.718zm-72.242 8.601h14.203c-.488-3.923-2.76-6.731-6.905-6.731-3.96 0-6.725 3.03-7.299 6.731m8.019 10.645c2.848 0 5.16-.894 7.345-2.496l1.334 2.136c-2.494 1.914-5.299 2.89-8.907 2.89-6.899 0-10.867-4.718-10.867-11.173 0-6.287 4.279-11.177 10.375-11.177 5.793 0 9.627 3.868 9.935 9.569l.134 2.048h-17.46c.136 4.815 2.986 8.203 8.111 8.203" fill="#231f20"/></svg>