<?xml version="1.0" encoding="utf-8"?>

<svg version="1.1" id="CBC_Television_Logo" xmlns="http://www.w3.org/2000/svg" xmlns:xlink="http://www.w3.org/1999/xlink"
	 x="0px" y="0px" width="518.16px" height="425.9px" viewBox="0 0 518.16 425.9" enable-background="new 0 0 518.16 425.9"
	 xml:space="preserve">
<path fill="#EC202F" d="M258.503,213.896c29.657,0,53.686-24.04,53.686-53.677c0-29.649-24.027-53.684-53.686-53.684
	c-29.649,0-53.694,24.033-53.694,53.684C204.808,189.856,228.853,213.896,258.503,213.896 M196.51,213.896
	c-29.663,0-53.71-24.04-53.71-53.677c0-29.649,24.047-53.707,53.71-53.707V213.896 M320.497,273.135l0.014-50.945l50.952,0.023
	C371.463,250.374,348.636,273.135,320.497,273.135 M196.51,47.26v50.996l-51.022,0.014C145.488,70.099,168.344,47.26,196.51,47.26
	 M196.51,273.161V222.19l-51.011,0.023C145.5,250.374,168.333,273.161,196.51,273.161 M382.521,206.349l-0.022-92.265
	c15.717,9.369,26.243,26.517,26.243,46.135C408.742,179.833,398.216,196.98,382.521,206.349 M212.362,36.213l92.271,0.014
	C295.269,20.515,278.129,10,258.516,10C238.897,10,221.738,20.515,212.362,36.213 M303.963,284.219l-92.281-0.012
	c9.357,15.705,26.505,26.231,46.123,26.231C277.434,310.44,294.575,299.937,303.963,284.219 M312.175,222.214
	c0,29.646-24.015,53.686-53.672,53.686c-29.649,0-53.708-24.04-53.708-53.686H312.175 M320.51,213.896
	c29.637,0,53.704-24.04,53.704-53.677c0-29.649-24.067-53.707-53.704-53.707V213.896 M312.175,98.32
	c0-29.639-24.015-53.685-53.672-53.685c-29.649,0-53.708,24.046-53.708,53.685H312.175 M134.497,206.349l0.025-92.265
	c-15.729,9.369-26.233,26.517-26.233,46.135C108.289,179.833,118.792,196.98,134.497,206.349 M371.463,98.294l-50.952-0.038
	l-0.014-50.958C348.636,47.298,371.463,70.112,371.463,98.294"/>
<path fill="#231F20" d="M48.036,414.055c-3.574,0.842-7.432,1.534-11.16,1.534C21.023,415.59,10,407.665,10,391.094
	c0-16.771,10.25-26.183,26.876-26.183c3.232,0,7.523,0.645,11.084,2.058l-0.7,8.271c-3.716-2.107-7.084-2.601-10.589-2.601
	c-10.105,0-16.422,7.73-16.422,17.762c0,9.956,6.18,17.472,16.626,17.472c3.87,0,8.422-0.839,10.744-2.029L48.036,414.055
	 M55.96,365.765h17.124c6.316,0,15.79,1.819,15.79,12.569c0,5.823-3.919,9.882-9.752,10.95v0.133
	c6.67,0.622,11.22,5.117,11.22,11.162c0,12.335-11.077,14.169-17.258,14.169H55.96V365.765 M65.796,385.545h3.993
	c4.143,0,9.271-0.903,9.271-5.971c0-5.673-4.985-6.092-9.476-6.092h-3.789V385.545 M65.796,407.034h4.626
	c4.563,0,10.106-1.13,10.106-6.801c0-6.4-5.196-7.379-10.106-7.379h-4.626V407.034z M133.277,414.055
	c-3.58,0.842-7.442,1.534-11.161,1.534c-15.851,0-26.888-7.926-26.888-24.496c0-16.771,10.249-26.183,26.888-26.183
	c3.222,0,7.506,0.645,11.085,2.058l-0.7,8.271c-3.715-2.107-7.089-2.601-10.602-2.601c-10.093,0-16.422,7.73-16.422,17.762
	c0,9.956,6.174,17.472,16.639,17.472c3.854,0,8.424-0.839,10.727-2.029L133.277,414.055"/>
<path fill="#124B8E" d="M163.229,410.711c-4.903,0-6.538-3.642-6.538-8.076v-31.716h11.16v-5.202h-26.84v5.202h9.629v28.635
	c0,8.941,0.379,16.347,11.146,16.347c2.979,0,5.956-0.778,7.406-1.325l-0.383-5.027C167.076,410.24,165.54,410.711,163.229,410.711
	 M196.107,364.563c-12.404,0-20.678,10.677-20.678,25.663c0,14.716,6.063,25.674,22.312,25.674c4.514,0,9.996-0.951,14.23-2.688
	v-6.143c-2.879,1.822-9.32,3.642-13.747,3.642c-10.576,0-16.156-8.371-16.156-18.752h33.557v-3.068
	C215.625,375.723,209.953,364.563,196.107,364.563 M182.068,386.771c0-8.087,5.487-17.028,14.416-17.028
	c9.042,0,12.51,8.483,12.51,17.028H182.068z M227.353,349.071h6.057v65.679h-6.057V349.071z M265.086,364.563
	c-12.403,0-20.67,10.677-20.67,25.663c0,14.716,6.063,25.674,22.292,25.674c4.533,0,9.996-0.951,14.243-2.688v-6.143
	c-2.897,1.822-9.339,3.642-13.76,3.642c-10.577,0-16.145-8.371-16.145-18.752h33.559v-3.068
	C284.605,375.723,278.92,364.563,265.086,364.563 M251.048,386.771c0-8.087,5.475-17.028,14.416-17.028
	c9.048,0,12.488,8.483,12.488,17.028H251.048z M310.205,408.132h-0.211l-13.561-42.415h-6.64l16.645,49.033h7.111l17.216-49.033
	h-6.355L310.205,408.132 M339.979,365.717h6.069v49.032h-6.069V365.717z M363.76,377.927c0-6.255,4.333-8.185,10.575-8.185
	c3.369,0,7.706,0.891,10.877,2.315l0.565-5.288c-4.32-1.639-9.511-2.207-12.109-2.207c-8.076,0-15.965,3.652-15.965,13.363
	c0,14.229,23.567,12.397,23.567,24.044c0,5.57-5.101,8.74-10.874,8.74c-4.706,0-9.128-1.25-12.781-3.071l-0.583,5.97
	c4.336,1.721,9.043,2.291,13.747,2.291c7.419,0,17.13-3.553,17.13-13.93C387.91,385.903,363.76,387.057,363.76,377.927
	 M399.181,365.717h6.045v49.032h-6.045V365.717z M437.934,364.563c-15.854,0-22.876,12.311-22.876,25.663
	c0,13.361,7.022,25.674,22.876,25.674c15.866,0,22.898-12.313,22.898-25.674C460.833,376.874,453.801,364.563,437.934,364.563
	 M437.934,410.711c-10.575,0-16.236-9.139-16.236-20.484c0-11.333,5.661-20.483,16.236-20.483c10.579,0,16.25,9.15,16.25,20.483
	C454.184,401.573,448.513,410.711,437.934,410.711z M491.428,364.563c-10.184,0-13.85,5.476-15.868,9.909h-0.187v-8.756h-5.858
	c0.384,3.949,0.384,7.787,0.384,11.543v37.489h6.046v-27.122c0-8.151,3.466-17.885,14.515-17.885c8.373,0,11.645,5.98,11.645,15.209
	v29.798h6.056v-31.336C508.158,372.639,503.537,364.563,491.428,364.563"/>
</svg>
