<svg xmlns="http://www.w3.org/2000/svg" xmlns:xlink="http://www.w3.org/1999/xlink" width="87" height="75" viewBox="0 0 86.934 74.651" xmlns:v="https://vecta.io/nano"><defs><clipPath id="A"><use width="72.944" height="111.479" xlink:href="#B"/></clipPath><path d="M72.003 36.546c0 19.881-16.119 35.997-36.001 35.997S.004 56.427.004 36.546C.004 16.658 16.12.542 36.002.542s36.001 16.116 36.001 36.004z" id="B"/></defs><g clip-path="url(#A)" transform="matrix(.999243 0 0 .99924 6.646336 1.020793)"><path d="M72.944 36.478c0 20.143-16.328 36.473-36.472 36.473S0 56.62 0 36.478C0 16.329 16.329 0 36.473 0s36.472 16.329 36.472 36.478z" fill="#b2b4b6"/><g fill="#b2b4b7"><path d="M72.875 36.456c0 20.083-16.28 36.365-36.364 36.365S.146 56.539.146 36.456C.146 16.367 16.427.086 36.511.086s36.364 16.281 36.364 36.37z"/><path d="M72.807 36.434c0 20.024-16.232 36.258-36.258 36.258S.292 56.458.292 36.434C.292 16.404 16.524.172 36.549.172s36.258 16.232 36.258 36.262z"/></g><path d="M72.737 36.412c0 19.965-16.185 36.15-36.149 36.15S.438 56.377.438 36.412C.438 16.442 16.622.257 36.588.257s36.149 16.185 36.149 36.155z" fill="#b3b5b8"/><path d="M72.669 36.39c0 19.905-16.137 36.042-36.043 36.042S.583 56.295.583 36.39C.583 16.479 16.719.343 36.626.343S72.669 16.479 72.669 36.39z" fill="#b4b6b8"/><path d="M72.6 36.369c0 19.846-16.089 35.935-35.936 35.935S.729 56.214.729 36.369C.729 16.518 16.817.429 36.664.429S72.6 16.518 72.6 36.369z" fill="#b5b7b9"/><path d="M72.53 36.347c0 19.787-16.04 35.827-35.828 35.827S.875 56.133.875 36.347 16.915.514 36.703.514 72.53 16.555 72.53 36.347z" fill="#b6b8ba"/><path d="M72.461 36.325c0 19.728-15.992 35.719-35.72 35.719S1.021 56.052 1.021 36.325 17.012.6 36.741.6s35.72 15.993 35.72 35.725z" fill="#b7b9bb"/><g fill="#b7b9bc"><path d="M72.393 36.303c0 19.667-15.944 35.611-35.613 35.611S1.167 55.971 1.167 36.303C1.167 16.63 17.109.686 36.779.686S72.393 16.63 72.393 36.303z"/><path d="M72.323 36.281c0 19.608-15.896 35.503-35.506 35.503S1.312 55.89 1.312 36.281 17.207.771 36.817.771s35.506 15.896 35.506 35.51z"/></g><path d="M72.299 36.262c0 19.567-15.862 35.428-35.429 35.428S1.44 55.829 1.44 36.262 17.301.829 36.87.829s35.429 15.863 35.429 35.434z" fill="#b8babc"/><path d="M72.274 36.243c0 19.524-15.828 35.351-35.354 35.351S1.568 55.768 1.568 36.243 17.395.886 36.92.886s35.354 15.828 35.354 35.357z" fill="#b9bbbd"/><path d="M72.25 36.224c0 19.483-15.794 35.276-35.278 35.276S1.695 55.707 1.695 36.224 17.488.942 36.972.942 72.25 16.737 72.25 36.224z" fill="#babcbe"/><path d="M72.226 36.206c0 19.44-15.76 35.199-35.201 35.199S1.823 55.646 1.823 36.206C1.823 16.76 17.582 1 37.024 1S72.226 16.76 72.226 36.206z" fill="#bbbdbf"/><path d="M72.201 36.187c0 19.398-15.726 35.124-35.125 35.124S1.952 55.585 1.952 36.187c0-19.404 15.724-35.129 35.125-35.129s35.125 15.726 35.125 35.129z" fill="#bcbdc0"/><path d="M72.177 36.167c0 19.356-15.692 35.047-35.049 35.047S2.079 55.523 2.079 36.167c0-19.362 15.691-35.053 35.049-35.053s35.049 15.691 35.049 35.053z" fill="#bcbec0"/><path d="M72.152 36.148c0 19.314-15.658 34.972-34.973 34.972S2.206 55.462 2.206 36.148 17.863 1.171 37.18 1.171s34.973 15.658 34.973 34.977z" fill="#bdbfc1"/><path d="M72.128 36.129c0 19.273-15.624 34.896-34.896 34.896S2.334 55.402 2.334 36.129 17.957 1.228 37.231 1.228s34.896 15.624 34.896 34.901z" fill="#bec0c2"/><path d="M72.104 36.11c0 19.231-15.59 34.82-34.82 34.82S2.462 55.341 2.462 36.11 18.051 1.286 37.283 1.286s34.82 15.589 34.82 34.825z" fill="#bfc1c3"/><path d="M72.079 36.091c0 19.188-15.556 34.743-34.744 34.743S2.589 55.28 2.589 36.091 18.145 1.342 37.335 1.342s34.744 15.556 34.744 34.749z" fill="#c0c2c4"/><path d="M72.055 36.072c0 19.146-15.522 34.667-34.669 34.667S2.717 55.218 2.717 36.072c0-19.151 15.521-34.673 34.668-34.673s34.669 15.522 34.669 34.673z" fill="#c1c2c4"/><path d="M72.03 36.053c0 19.104-15.487 34.592-34.592 34.592S2.845 55.158 2.845 36.053 18.332 1.457 37.438 1.457 72.03 16.944 72.03 36.053z" fill="#c1c3c5"/><path d="M72.006 36.035c0 19.063-15.453 34.515-34.516 34.515S2.973 55.097 2.973 36.035 18.425 1.514 37.49 1.514s34.516 15.454 34.516 34.521z" fill="#c2c4c6"/><path d="M71.981 36.015c0 19.021-15.42 34.439-34.439 34.439S3.1 55.036 3.1 36.015 18.519 1.57 37.542 1.57s34.439 15.42 34.439 34.445z" fill="#c3c5c7"/><path d="M71.957 35.996c0 18.979-15.386 34.364-34.364 34.364S3.228 54.975 3.228 35.996 18.613 1.627 37.593 1.627s34.364 15.385 34.364 34.369z" fill="#c4c6c8"/><path d="M71.933 35.977c0 18.937-15.352 34.287-34.287 34.287s-34.29-15.35-34.29-34.287S18.707 1.685 37.646 1.685s34.287 15.352 34.287 34.292z" fill="#c5c6c8"/><path d="M71.909 35.958c0 18.895-15.318 34.211-34.213 34.211S3.483 54.853 3.483 35.958 18.8 1.742 37.696 1.742s34.213 15.317 34.213 34.216z" fill="#c5c7c9"/><path d="M71.885 35.939c0 18.853-15.284 34.135-34.136 34.135S3.611 54.792 3.611 35.939 18.894 1.799 37.749 1.799s34.136 15.283 34.136 34.141z" fill="#c6c8ca"/><path d="M71.86 35.92c0 18.811-15.25 34.06-34.061 34.06S3.739 54.731 3.739 35.92 18.988 1.856 37.8 1.856 71.86 17.105 71.86 35.92z" fill="#c7c9cb"/><path d="M71.836 35.901c0 18.769-15.217 33.983-33.984 33.983S3.867 54.67 3.867 35.901 19.082 1.913 37.852 1.913s33.984 15.215 33.984 33.988z" fill="#c8cacc"/><path d="M71.812 35.882c0 18.727-15.183 33.907-33.908 33.907S3.995 54.609 3.995 35.882 19.175 1.97 37.903 1.97s33.908 15.181 33.908 33.912z" fill="#c9cbcc"/><path d="M71.787 35.863c0 18.685-15.148 33.832-33.832 33.832S4.122 54.548 4.122 35.863 19.269 2.027 37.955 2.027s33.832 15.146 33.832 33.836z" fill="#cacbcd"/><path d="M71.763 35.844c0 18.643-15.114 33.755-33.756 33.755S4.25 54.487 4.25 35.844s15.113-33.76 33.757-33.76 33.756 15.112 33.756 33.76z" fill="#cbccce"/><path d="M71.738 35.825c0 18.601-15.08 33.679-33.68 33.679S4.377 54.426 4.377 35.825 19.457 2.142 38.059 2.142s33.68 15.078 33.68 33.684z" fill="#cbcdcf"/><path d="M71.714 35.806c0 18.559-15.046 33.604-33.604 33.604S4.505 54.365 4.505 35.806 19.55 2.199 38.11 2.199s33.604 15.044 33.604 33.607z" fill="#ccced0"/><path d="M71.689 35.788c0 18.516-15.012 33.526-33.527 33.526S4.633 54.304 4.633 35.788c0-18.521 15.011-33.532 33.529-33.532s33.527 15.011 33.527 33.532z" fill="#cdcfd0"/><path d="M71.665 35.769c0 18.475-14.979 33.451-33.451 33.451S4.761 54.243 4.761 35.769 19.737 2.312 38.214 2.312s33.451 14.977 33.451 33.456z" fill="#cecfd1"/><path d="M71.641 35.75c0 18.433-14.944 33.375-33.375 33.375S4.888 54.182 4.888 35.75 19.831 2.37 38.266 2.37s33.375 14.942 33.375 33.38z" fill="#cfd0d2"/><path d="M71.616 35.73c0 18.391-14.91 33.299-33.299 33.299S5.016 54.121 5.016 35.73 19.925 2.427 38.317 2.427 71.616 17.335 71.616 35.73z" fill="#d0d1d3"/><path d="M71.592 35.711c0 18.349-14.876 33.223-33.223 33.223S5.144 54.06 5.144 35.711 20.019 2.484 38.369 2.484s33.223 14.874 33.223 33.228z" fill="#d0d2d3"/><path d="M71.567 35.692c0 18.307-14.842 33.147-33.146 33.147S5.271 53.999 5.271 35.692 20.112 2.541 38.421 2.541s33.146 14.84 33.146 33.151z" fill="#d1d3d4"/><path d="M71.517 35.666c0 18.248-14.794 33.04-33.04 33.04S5.435 53.914 5.435 35.666 20.227 2.621 38.477 2.621s33.04 14.792 33.04 33.044z" fill="#d2d3d5"/><path d="M71.466 35.64c0 18.188-14.746 32.933-32.933 32.933S5.598 53.828 5.598 35.64c0-18.194 14.745-32.938 32.936-32.938S71.466 17.446 71.466 35.64z" fill="#d3d4d6"/><path d="M71.415 35.613c0 18.129-14.697 32.826-32.825 32.826S5.761 53.743 5.761 35.613c0-18.135 14.697-32.831 32.829-32.831s32.825 14.696 32.825 32.831z" fill="#d4d5d7"/><path d="M71.364 35.586c0 18.071-14.65 32.72-32.719 32.72S5.924 53.657 5.924 35.586 20.573 2.862 38.646 2.862s32.719 14.649 32.719 32.724z" fill="#d5d6d7"/><path d="M71.313 35.56c0 18.012-14.603 32.613-32.612 32.613S6.087 53.571 6.087 35.56 20.688 2.942 38.701 2.942 71.313 17.543 71.313 35.56z" fill="#d5d7d8"/><path d="M71.263 35.533c0 17.953-14.554 32.505-32.505 32.505S6.25 53.486 6.25 35.533s14.553-32.51 32.507-32.51 32.505 14.553 32.505 32.51z" fill="#d6d7d9"/><path d="M71.213 35.507c0 17.894-14.507 32.399-32.399 32.399S6.414 53.4 6.414 35.507 20.919 3.104 38.813 3.104s32.399 14.505 32.399 32.403z" fill="#d7d8da"/><g fill="#d8d9db"><path d="M71.162 35.48c0 17.834-14.459 32.292-32.292 32.292S6.577 53.315 6.577 35.48 21.034 3.184 38.87 3.184 71.162 17.641 71.162 35.48z"/><path d="M71.11 35.454c0 17.775-14.41 32.185-32.185 32.185S6.74 53.229 6.74 35.454s14.409-32.19 32.186-32.19 32.185 14.41 32.185 32.19z"/></g><path d="M71.061 35.427c0 17.717-14.362 32.078-32.078 32.078S6.903 53.144 6.903 35.427 21.265 3.344 38.982 3.344s32.078 14.362 32.078 32.083z" fill="#d9dadb"/><path d="M71.01 35.401c0 17.657-14.314 31.971-31.972 31.971S7.066 53.058 7.066 35.401 21.38 3.425 39.038 3.425 71.01 17.739 71.01 35.401z" fill="#d9dbdc"/><path d="M70.959 35.374c0 17.599-14.267 31.864-31.864 31.864S7.229 52.973 7.229 35.374 21.495 3.505 39.095 3.505s31.864 14.266 31.864 31.869z" fill="#dadcdd"/><path d="M70.908 35.348c0 17.54-14.219 31.757-31.758 31.757S7.393 52.887 7.393 35.348 21.61 3.585 39.15 3.585s31.758 14.218 31.758 31.762z" fill="#dbdcde"/><path d="M70.857 35.321c0 17.48-14.171 31.65-31.65 31.65S7.556 52.802 7.556 35.321 21.726 3.666 39.207 3.666s31.65 14.171 31.65 31.656z" fill="#dcddde"/><path d="M70.808 35.294c0 17.422-14.124 31.544-31.545 31.544S7.719 52.716 7.719 35.294 21.841 3.746 39.263 3.746s31.545 14.123 31.545 31.548z" fill="#dddedf"/><path d="M70.757 35.268c0 17.362-14.075 31.437-31.437 31.437S7.882 52.63 7.882 35.268 21.956 3.827 39.319 3.827s31.438 14.075 31.438 31.441z" fill="#dedfe0"/><path d="M70.706 35.242c0 17.303-14.027 31.329-31.331 31.329S8.046 52.545 8.046 35.242 22.071 3.907 39.375 3.907s31.331 14.027 31.331 31.335z" fill="#dee0e1"/><path d="M70.655 35.215c0 17.245-13.979 31.223-31.224 31.223S8.209 52.459 8.209 35.215 22.187 3.987 39.432 3.987s31.224 13.979 31.224 31.228z" fill="#dfe0e2"/><path d="M70.604 35.188c0 17.186-13.932 31.116-31.117 31.116S8.372 52.374 8.372 35.188 22.302 4.067 39.487 4.067s31.117 13.932 31.117 31.121z" fill="#e0e1e2"/><path d="M70.538 35.149c0 17.089-13.854 30.942-30.943 30.942S8.653 52.238 8.653 35.149 22.505 4.201 39.595 4.201s30.943 13.854 30.943 30.948z" fill="#e1e2e3"/><path d="M70.473 35.109c0 16.995-13.776 30.77-30.771 30.77s-30.77-13.775-30.77-30.77S22.708 4.334 39.702 4.334s30.771 13.777 30.771 30.774z" fill="#e2e3e4"/><g fill="#e3e4e5"><path d="M70.406 35.069c0 16.898-13.699 30.596-30.598 30.596S9.213 51.968 9.213 35.069 22.911 4.468 39.809 4.468s30.598 13.699 30.598 30.601z"/><path d="M70.341 35.03c0 16.803-13.622 30.423-30.425 30.423S9.493 51.833 9.493 35.03 23.113 4.602 39.916 4.602 70.341 18.223 70.341 35.03z"/></g><path d="M70.274 34.99c0 16.708-13.543 30.25-30.251 30.25S9.774 51.697 9.774 34.99 23.317 4.735 40.023 4.735 70.274 18.279 70.274 34.99z" fill="#e4e5e6"/><path d="M70.208 34.95c0 16.612-13.466 30.078-30.078 30.078S10.055 51.562 10.055 34.95 23.52 4.869 40.13 4.869 70.208 18.335 70.208 34.95z" fill="#e5e6e7"/><path d="M70.143 34.911c0 16.516-13.389 29.904-29.905 29.904S10.334 51.426 10.334 34.911 23.723 5.002 40.237 5.002s29.905 13.389 29.905 29.908z" fill="#e6e7e8"/><g fill="#e7e8e9"><path d="M70.076 34.871c0 16.42-13.311 29.731-29.731 29.731S10.615 51.291 10.615 34.871 23.926 5.136 40.345 5.136s29.731 13.311 29.731 29.735z"/><path d="M70.01 34.832c0 16.324-13.232 29.558-29.558 29.558S10.896 51.156 10.896 34.832 24.129 5.27 40.452 5.27 70.01 18.503 70.01 34.832z"/></g><path d="M69.944 34.792c0 16.229-13.155 29.385-29.385 29.385S11.176 51.02 11.176 34.792 24.332 5.403 40.56 5.403s29.385 13.156 29.385 29.388z" fill="#e8e8e9"/><path d="M69.878 34.752c0 16.133-13.077 29.212-29.212 29.212s-29.209-13.08-29.209-29.212S24.535 5.537 40.666 5.537s29.212 13.078 29.212 29.215z" fill="#e9e9ea"/><path d="M69.813 34.712c0 16.037-13 29.039-29.039 29.039S11.737 50.75 11.737 34.712 24.738 5.67 40.773 5.67s29.039 13.001 29.039 29.042z" fill="#e9eaeb"/><path d="M69.746 34.673c0 15.941-12.923 28.866-28.865 28.866S12.017 50.614 12.017 34.673 24.941 5.804 40.881 5.804s28.865 12.923 28.865 28.869z" fill="#eaebec"/><path d="M69.68 34.633c0 15.846-12.845 28.692-28.691 28.692s-28.69-12.847-28.69-28.692S25.144 5.938 40.988 5.938 69.68 18.784 69.68 34.633z" fill="#ebeced"/><path d="M69.614 34.593c0 15.75-12.768 28.52-28.52 28.52s-28.517-12.77-28.517-28.52S25.347 6.071 41.095 6.071s28.52 12.768 28.52 28.522z" fill="#eceded"/><path d="M69.548 34.554c0 15.654-12.689 28.346-28.346 28.346S12.858 50.208 12.858 34.554 25.55 6.205 41.202 6.205s28.346 12.69 28.346 28.349z" fill="#ededee"/><path d="M69.359 34.488c0 15.469-12.54 28.011-28.011 28.011S13.34 49.957 13.34 34.488 25.881 6.474 41.349 6.474s28.011 12.541 28.011 28.014z" fill="#eeeeef"/><path d="M69.17 34.422c0 15.284-12.389 27.676-27.675 27.676S13.821 49.707 13.821 34.422 26.212 6.743 41.495 6.743 69.17 19.134 69.17 34.422z" fill="#eeeff0"/><path d="M68.981 34.356c0 15.099-12.239 27.341-27.34 27.341S14.302 49.455 14.302 34.356 26.544 7.012 41.642 7.012s27.34 12.241 27.34 27.344z" fill="#eff0f0"/><path d="M68.793 34.291c0 14.914-12.09 27.006-27.005 27.006S14.784 49.204 14.784 34.291 26.875 7.281 41.788 7.281s27.005 12.091 27.005 27.009z" fill="#f0f1f1"/><path d="M68.604 34.225c0 14.729-11.939 26.67-26.67 26.67s-26.669-11.941-26.669-26.67S27.207 7.551 41.935 7.551s26.67 11.941 26.67 26.674z" fill="#f1f1f2"/><path d="M68.415 34.159c0 14.544-11.789 26.336-26.334 26.336S15.747 48.703 15.747 34.159 27.539 7.819 42.081 7.819a26.34 26.34 0 0 1 26.334 26.339z" fill="#f2f2f3"/><path d="M68.227 34.093c0 14.358-11.639 26-25.999 26s-26-11.642-26-26 11.642-26.004 26-26.004S68.227 19.73 68.227 34.093z" fill="#f3f3f3"/><g fill="#f3f4f4"><path d="M68.038 34.027a25.67 25.67 0 0 1-25.664 25.666c-14.173 0-25.665-11.492-25.665-25.666S28.201 8.358 42.374 8.358a25.67 25.67 0 0 1 25.664 25.669z"/><path d="M67.85 33.961c0 13.989-11.34 25.33-25.329 25.33S17.19 47.95 17.19 33.961 28.533 8.627 42.521 8.627 67.85 19.969 67.85 33.961z"/></g><path d="M67.66 33.896c0 13.803-11.188 24.995-24.993 24.995S17.672 47.699 17.672 33.896s11.192-25 24.995-25a25 25 0 0 1 24.993 25z" fill="#f4f5f5"/><path d="M67.472 33.83c0 13.618-11.039 24.66-24.658 24.66s-24.66-11.042-24.66-24.66S29.195 9.165 42.813 9.165 67.472 20.207 67.472 33.83z" fill="#f5f6f6"/><path d="M67.237 33.736a24.19 24.19 0 0 1-24.185 24.185c-13.356 0-24.186-10.829-24.186-24.185 0-13.361 10.83-24.191 24.186-24.191s24.185 10.83 24.185 24.191z" fill="#f6f6f7"/><path d="M67.002 33.642c0 13.095-10.615 23.711-23.711 23.711S19.58 46.737 19.58 33.642 30.197 9.925 43.291 9.925s23.711 10.617 23.711 23.716z" fill="#f7f7f8"/><path d="M66.768 33.547c0 12.833-10.403 23.237-23.237 23.237S20.293 46.381 20.293 33.547 30.697 10.305 43.53 10.305s23.237 10.404 23.237 23.242z" fill="#f8f8f9"/><path d="M66.533 33.453c0 12.572-10.191 22.763-22.764 22.763S21.007 46.025 21.007 33.453 31.198 10.686 43.77 10.686s22.764 10.191 22.764 22.768z" fill="#f9f9fa"/><g fill="#fafbfb"><path d="M66.298 33.359c0 12.311-9.979 22.289-22.29 22.289S21.72 45.669 21.72 33.359s9.979-22.293 22.288-22.293 22.29 9.979 22.29 22.293z"/><path d="M66.063 33.265c0 12.049-9.768 21.814-21.816 21.814s-21.813-9.766-21.813-21.814 9.766-21.819 21.813-21.819a21.82 21.82 0 0 1 21.816 21.819z"/></g><path d="M65.743 33.193c0 11.803-9.568 21.371-21.372 21.371s-21.369-9.567-21.369-21.371 9.567-21.375 21.369-21.375 21.372 9.567 21.372 21.375z" fill="#fcfcfc"/><g fill="#fdfdfd"><path d="M65.423 33.122a20.93 20.93 0 0 1-20.927 20.926 20.93 20.93 0 0 1-20.925-20.926 20.93 20.93 0 0 1 20.925-20.93c11.558 0 20.927 9.369 20.927 20.93z"/><path d="M65.103 33.05c0 11.311-9.17 20.482-20.481 20.482S24.14 44.361 24.14 33.05c0-11.316 9.17-20.486 20.481-20.486s20.481 9.169 20.481 20.486z"/></g><path d="M64.782 32.979c0 11.065-8.971 20.038-20.037 20.038s-20.037-8.973-20.037-20.038 8.972-20.041 20.037-20.041 20.037 8.971 20.037 20.041z" fill="#fff"/></g><path d="M21.277 15.414c-1.03.22-1.763.692-2.315 1.489-.563.828-.743 1.563-.69 2.905.053 1.321.244 1.835.998 2.632a3.44 3.44 0 0 0 2.326 1.112c2.113.189 3.706-.881 4.025-2.716l.074-.388h-1.062-1.051l-.074.315a1.23 1.23 0 0 1-.372.556c-.754.629-1.858.346-2.326-.598-.457-.912-.329-2.286.276-2.999s1.795-.598 2.326.22l.265.419.977-.031c.924-.031.977-.042 1.009-.273.021-.126-.042-.461-.127-.734-.202-.598-1.073-1.5-1.699-1.751-.478-.199-1.954-.294-2.559-.157zm40.756.199c-.956.325-1.603.944-2.06 1.961-.34.745-.414 2.506-.149 3.482.17.619.287.787.892 1.405.828.828 1.37 1.028 2.718 1.028 1.625 0 2.58-.493 3.122-1.605.181-.357.35-.828.393-1.049l.064-.388h-.988-.998l-.17.409c-.329.766-1.2 1.049-1.986.65-.499-.252-.807-.734-.988-1.584-.287-1.321.563-2.727 1.646-2.727.435 0 1.104.388 1.285.734l.17.315h1.019 1.019l-.064-.472c-.149-1.017-.913-1.909-1.89-2.192-.775-.231-2.326-.21-3.037.031zm-29.128 3.775v3.891h1.062 1.051l.032-1.395.032-1.384.478-.031c1.2-.084 1.699.378 1.699 1.605 0 1.258-.053 1.206 1.285 1.206 1.274 0 1.274 0 1.009-.64-.085-.199-.191-.849-.255-1.437-.085-.954-.138-1.122-.372-1.353l-.265-.273.35-.325c.775-.724.796-2.349.032-3.073-.584-.556-.775-.587-3.557-.64l-2.58-.042v3.891zm3.844-2.076c.743.199.881.881.276 1.29-.297.21-1.678.231-1.869.042-.138-.136-.181-1.258-.053-1.374.106-.115 1.211-.084 1.646.042zm9.642-.955v.839h.988c.627 0 1.03.042 1.115.126.096.094.127.912.127 3.041v2.915h1.062 1.062l.021-3.02.032-3.01 1.094-.031 1.083-.031v-.828-.839h-3.292-3.292v.839zm-27.715 10.98v1.951l9.801-.063 24.264-.073h14.463l-.021-1.867-.032-1.856-24.233-.031-24.243-.021v1.961zm39.417 4.594l-2.049.787h-8.017-8.007l-.021 2.8-.032 2.811-1.54.503c-8.155 2.674-17.075 4.845-22.937 5.579-1.826.231-5.214.325-6.509.168-2.878-.336-4.396-1.531-4.513-3.566-.042-.745.011-1.101.361-2.297.053-.178.021-.231-.149-.231-.149 0-.34.21-.637.703-1.434 2.402-2.007 4.142-1.911 5.768.064.996.308 1.51 1.009 2.129.977.86 1.996 1.133 4.651 1.227 2.878.094 6.233-.378 11.15-1.584 4.471-1.101 11.713-3.387 17.946-5.673l2.92-1.028c.138-.021.159 1.112.159 9.627v9.638l-1.327.482-4.216 1.468c-2.644.902-2.899 1.017-2.899 1.227 0 .136.032.241.064.241.138 0 3.292-.923 6.839-1.993 3.228-.975 3.887-1.154 4.619-1.175.796-.031.839-.042.903-.283.053-.231.319-.346 2.761-1.133l2.825-.87c.053 0 .319.503.584 1.122l.467 1.133 1.996.031c1.699.021 1.996 0 2.049-.136.074-.178.032-.304-.733-2.097l-.573-1.374 2.612-.933 2.772-.975c.096-.021 1.306 1.101 2.963 2.758l2.793 2.779h1.359 1.359l.042-1.29.042-1.279-2.262-2.255-2.272-2.265 2.453-.965c9.334-3.702 15.886-7.33 18.87-10.445 1.444-1.5 1.975-2.915 1.635-4.331-.255-1.049-1.625-2.328-3.356-3.167-1.041-.493-2.835-1.164-3.133-1.164-.404 0-.244.378.308.724 1.232.787 2.071 2.087 2.06 3.209-.011 1.216-.573 2.234-2.103 3.765-2.113 2.129-5.989 4.688-11.246 7.425-2.049 1.07-6.807 3.335-6.998 3.335-.074 0-2.464-2.307-5.331-5.139-2.857-2.821-5.108-5.118-4.991-5.097s3.727 1.489 8.017 3.251l8.049 3.209h.234l-.021-2.003-.032-2.003-6-2.454-7.985-3.261c-1.083-.451-1.954-.86-1.922-.912s3.398-.073 7.985-.052l7.922.042v-1.835-1.835l-4.534-.031c-2.506-.01-4.545-.063-4.545-.105s.552-.304 1.221-.598c.903-.378 1.221-.566 1.221-.703 0-.115-.074-.189-.181-.189-.106.01-1.115.357-2.241.787zm-5.309 16.066l4.545 4.551c0 .042-.181.147-.393.231l-2.209.902c-.988.409-1.858.745-1.922.745-.106 0-1.094-2.286-4.035-9.312-.372-.87-.637-1.594-.595-1.594.032 0 2.113 2.014 4.609 4.478zm-6.233 1.846l2.485 6.093c-.042.031-1.476.587-3.589 1.374-.722.273-1.349.451-1.391.399-.053-.042-.117-3.24-.159-7.11l.021-6.921c.053.052 1.242 2.831 2.634 6.166z"/></svg>