<svg xmlns="http://www.w3.org/2000/svg" xmlns:xlink="http://www.w3.org/1999/xlink" width="293.333" height="126.667" viewBox="0 0 220 95" preserveAspectRatio="xMidYMid meet" xmlns:v="https://vecta.io/nano"><path d="M29.3 19c-1.4.6-2.3 1.8-2.3 3.1 0 1.5.4 1.9 1.6 1.5l2-.6c.2 0 .4-.8.5-1.8 0-1 .3-1.2.6-.5.2.7 1.1 1.3 1.9 1.3s1.4.4 1.4 1c0 .5-.4 1-1 1-.5 0-1 .5-1 1.1s.7.9 1.6.7c2.2-.4 3-6.8 1-6.8-.8 0-2-.2-2.8-.4-.7-.3-2.3-.1-3.5.4zm12 0c-1.6.7-2.1 1.6-1.9 3.7.2 1.7 1 2.9 2 3.1 1.4.3 1.6-.1 1-2.4-.5-1.8-.3-2.5.4-2 .6.3 1.3 0 1.5-.6.3-.8.6-.6.6.4.1 1 .6 1.8 1.3 1.8.6 0 .4.6-.6 1.3-1.6 1.2-1.6 1.5-.4 1.9 1.6.7 3.2-.1 3.5-1.7.1-.6.5-1.8.8-2.7.5-1.3 0-2-2-2.8-3.1-1.2-3.3-1.2-6.2 0zm-12.8 6.7c-.3 1 .1 1.3 1.2 1.1.9-.2 1.8-.8 2-1.4.5-1.6-2.5-1.3-3.2.3zM37 29c0 .5.7 1 1.5 1s1.5-.5 1.5-1c0-.6-.7-1-1.5-1s-1.5.4-1.5 1zm9.7.6c.6 1.5 2.3 1.9 2.3.5 0-.5-.7-1.1-1.4-1.4-1-.4-1.3-.1-.9.9zm-18.4.9c0 .8.4 1.2.9.9s.6-1 .3-1.5c-.9-1.3-1.2-1.1-1.2.6zM12 36c0 3.9.3 4.2 6.4 8.1 5 3.1 6.3 4.4 5.9 5.9-.5 1.9-.6 1.9-4.5-.1-3.7-1.9-4.2-1.9-5.6-.5-2.5 2.5 1.3 6.9 6.4 7.6 5.4.7 5.6 3 .3 3-5.8 0-10 5-6.5 7.9 1.1 1 2.7.6 7.3-1.9 3.2-1.8 5-2.5 4.1-1.7-1.9 1.5-2.5 4.3-.8 3.2.6-.3 1-.4 1-.1 0 .2-3.1 2.4-7 4.7-6.9 4.3-7 4.4-7 8.6V85h4.4c4.3 0 4.4 0 8.6-7 2.3-3.9 4.4-7 4.7-7 .2 0 .1.5-.3 1.2-.5.8 0 .9 1.5.5s2.1-.2 1.8.6l-2.1 4.9c-1.4 3.3-1.4 3.7 0 4.9 2.4 2 4.8-.2 5.6-5.2.4-2.4 1.2-4.5 1.8-4.7.5-.2 1-1.5 1-2.8 0-1.4-.4-2.2-1-1.9-.5.3-1 .1-1-.4a1.11 1.11 0 0 0-1.1-1.1c-.6 0-.8.7-.5 1.6.5 1.4.4 1.5-.9.4-1.2-1-1.8-1-3.2.1-1.6 1.3-1.7 1.2-.4-.4.7-.9 1-1.7.5-1.7s-1.7-1.3-2.6-2.9c-1.3-2.4-1.3-2.9-.2-2.4.8.3 1.4 0 1.4-.6s-1-1.2-2.2-1.2c-1.8-.1-1.9-.2-.5-.6.9-.2 1.5-.9 1.2-1.4-.4-.5-.1-.9.4-.9a1.11 1.11 0 0 0 1.1-1.1c0-.6-.7-.8-1.7-.5-1 .4-1.4.4-1 0s-.1-1.3-1.1-2.1c-1.5-1.3-1.5-1.3.4-.4s2.3.7 3-1.7c.4-1.5.7-3 .6-3.4s.6-.4 1.5-.1c1.3.5 1.5.2 1-1.1-.4-1-.7-2-.7-2.2s-.7-.4-1.6-.4c-.8 0-1.2.4-.9 1 .3.5.4 1 .1 1-.2 0-2.4-3.2-4.7-7-4.3-6.9-4.4-7-8.6-7H12v4zm16.5 14.8c-.3.3-1.1 0-1.8-.7-.9-1-.8-1.1.6-.5 1 .3 1.5.9 1.2 1.2zm16-17.8c-1.6.7-1.7.9-.3.9.9.1 2-.4 2.3-.9.7-1.1.7-1.1-2 0zm9.2 2.7l-5.1 8.1c-2.6 4.2-2.9 8.1-.5 6.6.8-.4.9-.3.5.4-.4.6-.8 3.3-1 6l-.4 4.8 6.7 3.7c6.2 3.3 6.9 3.5 8.4 2s1.4-1.8-.4-4.5c-1.7-2.3-2.7-2.8-6.4-2.8-3.5 0-4.3-.3-3.9-1.5.4-1 1.9-1.5 4.3-1.5 3 0 4.2-.6 6-3.1 1.3-1.7 2.1-3.1 1.9-3.3-.1-.1-1.1-.7-2-1.5-1.4-1-2.4-.8-6.2 1.4-4.4 2.6-4.4 2.6-3.9.4.4-1.5.3-2-.5-1.5-.7.4-1.2.5-1.2.3 0-.3 3.4-2.6 7.5-5.2 7.3-4.5 7.5-4.8 7.5-8.6V32h-4.5c-4.1 0-4.7.3-6.8 3.7zm-21.9-2c.7.3 1.6.2 1.9-.1.4-.3-.2-.6-1.3-.5-1.1 0-1.4.3-.6.6zm-1.5 2.4c-.9.9-.5 2.6 1.7 6.8 2.6 5.3 3.1 5.7 6.3 5.7 2 0 3.3-.4 3-.9s.3-.6 1.4-.3c1.3.4 2.5 0 3.3-.9 1.7-2.1.5-3.1-1.6-1.4-1.3 1.1-1.2.5.4-2.8 2-3.7 2.1-7.4.3-7.3S41 38.1 41 40.4c0 1.8-.7 2.9-2.2 3.5-2.1.8-2.4.5-2.8-2.7-.6-4-3.9-6.9-5.7-5.1zm75.7 4.4c0 1.9-.5 3.5-1.1 3.5-.7 0-.9-1.1-.6-2.6.3-1.6.1-2.2-.5-1.6-1.5 1.5-.5 4.6 1.5 5 1.4.3 1.7-.4 1.7-3.7 0-2.3-.2-4.1-.5-4.1s-.5 1.6-.5 3.5zm40.4-2.4c-.3.6-.2 1.5.3 2s.9.1.9-1.1c0-2.3-.2-2.4-1.2-.9zM81.2 41c0 1.4.2 1.9.5 1.2.2-.6.2-1.8 0-2.5-.3-.6-.5-.1-.5 1.3zm71.2-.6c-.8 2.1.2 4.6 1.8 4.5 1 0 1-.2.1-.6-.7-.2-1.3-1.3-1.3-2.4 0-2 1.5-2.6 2.3-.9.3.6.4.5.3-.2-.4-1.9-2.5-2.1-3.2-.4z"/><use xlink:href="#B"/><path d="M149.6 42.4c.6 1.6.4 1.8-1.4 1.4-1.2-.4-2-.2-1.6.3.7 1.2 3.1 1.1 4-.2.3-.6.1-1.6-.5-2.2-.9-.9-1-.7-.5.7zM84 44c-.9.6-1 1-.3 1 .6 0 1.5-.5 1.8-1 .8-1.2.4-1.2-1.5 0zm28 0c-.9.6-1 1-.3 1 .6 0 1.5-.5 1.8-1 .8-1.2.4-1.2-1.5 0zm61.8.7c.7.3 1.6.2 1.9-.1.4-.3-.2-.6-1.3-.5-1.1 0-1.4.3-.6.6zM83 49.4c0 .2.7.7 1.6 1 .8.3 1.2.2.9-.4-.6-1-2.5-1.4-2.5-.6zm-45.9 1.9c-.6.6-1.1 1.8-1.1 2.8 0 1.1-.7 1.5-2.5 1.4-1.8-.2-2.4.1-2.2 1.4.4 2.7 4.5 6.1 7.3 6.1 2.9 0 6.3-3.4 6.4-6.4 0-1.4-.5-1.7-2.5-1.2-1.9.5-2.3.3-1.9-.9.8-2.1-2-4.7-3.5-3.2z"/><use xlink:href="#C"/><use xlink:href="#C" x="60"/><path d="M89.6 52.3c.3 1 .9 1.5 1.2 1.2s0-1.1-.7-1.8c-1-.9-1.1-.8-.5.6zm69.3 1.9c.4 2.8.6 2.9.9.9.2-1.3 0-2.7-.5-3.2-.6-.6-.7.3-.4 2.3z"/><use xlink:href="#B" x="-3" y="12"/><use xlink:href="#B" x="-1" y="12"/><use xlink:href="#B" x="7" y="12"/><path d="M166 53.9c0 1.1.4 2.2.9 2.5.4.3.6-.6.3-1.9-.5-3-1.2-3.3-1.2-.6zM84.4 55c0 1.3.4 1.6 1 1 .7-.7.7-1.3 0-2-.6-.6-1-.3-1 1zm28 .7c.1 1.9.5 2.8 1 2.3.6-.6.5-1.8-.1-3.2-1-2.1-1-2.1-.9.9zm48.6-.2c0 .8.4 1.5 1 1.5.5 0 .7-.7.4-1.5-.4-.8-.8-1.5-1-1.5s-.4.7-.4 1.5zm-14.3.6c.7.7 1.5 1 1.8.7s-.2-.9-1.2-1.2c-1.4-.6-1.5-.5-.6.5zm4.3-.1c0 .5.5 1 1.1 1 .5 0 .7-.5.4-1-.3-.6-.8-1-1.1-1-.2 0-.4.4-.4 1z"/><use xlink:href="#C" x="-28" y="12"/><use xlink:href="#C" x="-13" y="12"/><use xlink:href="#C" x="-11" y="12"/><path d="M48 64.5c0 .9-.7 1.8-1.5 2.1-.8.4-1.2 1-.9 1.5s-.7.4-2.1-.1c-1.5-.6-2.8-1-3.1-1-.2 0-.4 3.1-.4 6.8 0 5.9.3 7.2 2.4 9.1l2.4 2.3 1.1-2.1c.9-1.6.8-2.9-.4-5.7-1.9-4.5-1.9-4.4.1-4.4 1.1 0 1.4-.6 1-1.8-.7-2.1-.1-1.3 5.6 7.9 3.7 5.8 3.8 5.9 8.3 5.9H65v-4c0-3.9-.3-4.2-6.5-8.2-4-2.6-6.5-4.8-6.5-5.9 0-1-.9-2.3-2-2.9-1.6-.9-2-.8-2 .5z"/><use xlink:href="#B" x="-74" y="24"/><use xlink:href="#B" x="-71" y="24"/><use xlink:href="#B" x="-57" y="24"/><use xlink:href="#B" x="-11" y="24"/><path d="M164.2 66c0 1.4.2 1.9.5 1.2.2-.6.2-1.8 0-2.5-.3-.6-.5-.1-.5 1.3z"/><use xlink:href="#B" x="12" y="24"/><use xlink:href="#B" x="32" y="24"/><use xlink:href="#B" x="35" y="24"/><use xlink:href="#B" x="42" y="24"/><use xlink:href="#B" x="45" y="24"/><path d="M91.1 66.6c0 1.1.3 1.4.6.6.3-.7.2-1.6-.1-1.9-.3-.4-.6.2-.5 1.3z"/><use xlink:href="#D"/><use xlink:href="#D" x="13"/><path d="M102 68c0 .6.7 1 1.5 1s1.5-.2 1.5-.4-.7-.6-1.5-1c-.8-.3-1.5-.1-1.5.4zm69 .1c0 .5.9.9 2 .9s2-.2 2-.4-.9-.6-2-.9-2-.1-2 .4z"/><use xlink:href="#C" x="40" y="24"/><use xlink:href="#C" x="76" y="24"/><path d="M83.1 77.2c.9.7 1.8 2 2.2 2.8.4 1.2.6 1.2.6-.2.1-1-.9-2.2-2.1-2.8-2-.9-2.1-.9-.7.2zm4.2.3c-.7 2.1-.2 2.4 2.2 1.4 1.8-.7 1.8-.8.2-.8-1-.1-1.5-.6-1.2-1.1.3-.6.4-1 0-1-.3 0-.8.7-1.2 1.5z"/><use xlink:href="#B" x="-56" y="36"/><path d="M103.3 77.5c-.3.9-.3 1.8-.1 2.1.3.3.8-.4 1.1-1.6.6-2.3-.1-2.7-1-.5z"/><use xlink:href="#B" x="20" y="36"/><path d="M179 78.5c0 1.4.2 2.5.4 2.5s.6-1.1.8-2.5c.3-1.4.1-2.5-.3-2.5-.5 0-.9 1.1-.9 2.5zm9.2-.5c0 1.4.2 1.9.5 1.2.2-.6.2-1.8 0-2.5-.3-.6-.5-.1-.5 1.3z"/><use xlink:href="#D" x="-30" y="12"/><path d="M164.1 78.6c0 1.1.3 1.4.6.6.3-.7.2-1.6-.1-1.9-.3-.4-.6.2-.5 1.3z"/><use xlink:href="#D" x="-12" y="12"/><path d="M109.8 78.7c.7.3 1.6.2 1.9-.1.4-.3-.2-.6-1.3-.5-1.1 0-1.4.3-.6.6zm51.8.6c.3 1 .9 1.5 1.2 1.2s0-1.1-.7-1.8c-1-.9-1.1-.8-.5.6z"/><defs ><path id="B" d="M157.2 42.5c0 1.6.2 2.2.5 1.2.2-.9.2-2.3 0-3-.3-.6-.5.1-.5 1.8z"/><path id="C" d="M109.3 53.5c0 2.2.2 3 .4 1.7.2-1.2.2-3 0-4-.3-.9-.5.1-.4 2.3z"/><path id="D" d="M181 66.4c0 .8.4 1.7.9 2 .5.4.7-.3.4-1.4-.6-2.3-1.3-2.6-1.3-.6z"/></defs></svg>