<svg xmlns="http://www.w3.org/2000/svg" xmlns:xlink="http://www.w3.org/1999/xlink" width="2360" height="1640" shape-rendering="geometricPrecision" image-rendering="optimizeQuality" fill-rule="evenodd" xmlns:v="https://vecta.io/nano"><style><![CDATA[.B{opacity:.004}.C{opacity:.005}.D{opacity:.006}.E{opacity:.009}.F{opacity:.01}.G{opacity:.008}.H{opacity:.014}.I{opacity:.013}.J{opacity:.012}]]></style><path d="M667.5 439.5c1.322-.17 2.489.163 3.5 1a581.88 581.88 0 0 0 15 61l8.5-3.5c1.972-3.92 3.139-8.086 3.5-12.5 1.011-.837 2.178-1.17 3.5-1 1.333 3.667 1.333 7.333 0 11 2.327-.165 4.493-.831 6.5-2v-53c1.333-1.333 2.667-1.333 4 0 .24 2.862 1.407 5.195 3.5 7a165.51 165.51 0 0 0 2.5 44c4.642-2.037 9.475-3.537 14.5-4.5 1.604-3.344 3.604-3.844 6-1.5 7.129-2.616 14.462-4.282 22-5v4a194.38 194.38 0 0 0-23 6c-3.447 5.362-6.114 11.029-8 17 16.06.949 29.894 6.949 41.5 18-1.562-10.482-3.395-20.982-5.5-31.5-.239-2.259.761-3.426 3-3.5 1.147.318 1.981.984 2.5 2 4.071 13.47 9.238 26.47 15.5 39l1-1c-1.638-24.618-2.472-49.285-2.5-74l1-6c1.049-1.017 2.216-1.184 3.5-.5 1.719 3.957 2.386 8.124 2 12.5 2.135-.353 3.468.48 4 2.5a56.74 56.74 0 0 0-1.5 6.5 1500.65 1500.65 0 0 0-1 49c3.419-5.423 7.585-10.256 12.5-14.5a143.27 143.27 0 0 1-11-28c.469-3.822 1.969-4.322 4.5-1.5 1.163 5.328 3.163 10.328 6 15l17 30c2.951 1.576 6.117 2.243 9.5 2a180.87 180.87 0 0 1 .5-19c.996-7.507 2.996-7.84 6-1l2.5 22a44.61 44.61 0 0 1 17.5 7c.906-3.779 1.406-7.612 1.5-11.5-.908-12.134-1.241-24.134-1-36 3.152-3.286 5.486-2.619 7 2-.411 1.144-.744 2.311-1 3.5 1.586 14.958 2.753 29.958 3.5 45 5.413-10.494 11.079-20.827 17-31 1.158.498 1.991 1.331 2.5 2.5a526.22 526.22 0 0 1-17 33.5l1.5 1c9.56-4.697 19.393-8.697 29.5-12 1.783.848 2.283 2.181 1.5 4a138.27 138.27 0 0 1-13.5 14.5c8.967.514 17.8 1.681 26.5 3.5-.914-5.498-2.081-10.998-3.5-16.5.59-1.299 1.59-2.132 3-2.5a13.31 13.31 0 0 1 6 4.5c1.21 5.514 2.876 10.847 5 16 7.542 1.458 14.875 3.625 22 6.5 1.611-11.988 2.111-23.988 1.5-36-.266-3.401 1.234-5.067 4.5-5-.167 11.005 0 22.005.5 33 2.209 3.289 3.042 6.956 2.5 11-4.1-.76-5.1.573-3 4-1.149 2.936-1.649 5.936-1.5 9 7.061-18.632 16.561-35.799 28.5-51.5 3.615-1.927 5.115-.76 4.5 3.5-6.062 14.535-13.562 28.201-22.5 41l.5 1c8.436-8.608 17.602-16.274 27.5-23 2.441 2.028 2.608 4.362.5 7a470.2 470.2 0 0 0-26 32c-.982 1.259-1.315 2.592-1 4 2.247-1.655 4.58-1.988 7-1a697.58 697.58 0 0 1 47.5-60.5c.67-.667 1.33-.667 2 0 1.05 1.388 1.22 2.888.5 4.5a927.13 927.13 0 0 1-44.5 74.5c3.239 7.933 7.406 15.433 12.5 22.5.268-9.365.935-18.698 2-28a8.98 8.98 0 0 1 6.5-2c-2.023 12.938-3.189 25.938-3.5 39 3.966 4.967 8.3 9.634 13 14 4.53-11.076 8.36-22.409 11.5-34 2.45-.49 4.12.343 5 2.5-1.08 3.812-2.08 7.645-3 11.5.06 1.237.56 2.237 1.5 3 3.13-5.426 6.63-10.593 10.5-15.5 1.97-.538 2.97.296 3 2.5-5.86 11.301-11.36 22.634-16.5 34 3.22-5.396 7.72-9.062 13.5-11-.1 3.948-1.77 7.115-5 9.5 3.52-.768 6.52-2.601 9-5.5-.6-29.966 2.23-59.633 8.5-89 .61-2.532 2.11-3.365 4.5-2.5a656.88 656.88 0 0 1-6 86.5l1 1c2.11-1.137 4.27-2.137 6.5-3 1.28.113 2.11.78 2.5 2a8.82 8.82 0 0 1-4 4.5c-7.84 4.751-15.5 9.751-23 15 2.53 1.934 5.2 3.268 8 4a2248.05 2248.05 0 0 1 61-52c6.97-5.968 13.64-12.301 20-19 3.88-1.251 5.21-.085 4 3.5a1648.47 1648.47 0 0 1-76 76.5c7.21 6.543 13.71 13.71 19.5 21.5 8.25 11.493 16.25 23.16 24 35 3.94-12.442 7.28-25.109 10-38 1.84-2.4 3.34-2.067 4.5 1a828.9 828.9 0 0 1-11 43.5 101.58 101.58 0 0 1 4.5 8.5l21.5-54c3.36.644 4.53 2.644 3.5 6-6.27 19.496-13.27 38.496-21 57 24.64-13.905 50.47-24.905 77.5-33 .27 1.951-.39 3.451-2 4.5a556.01 556.01 0 0 0-58 25c-3.3 1.467-5.3 3.967-6 7.5-2.58 1.206-5.08 2.539-7.5 4 .02 1.607.19 3.274.5 5a255.87 255.87 0 0 1 22-4c.17 1.322-.16 2.489-1 3.5a108.41 108.41 0 0 1-11 4c2.71 3.35 1.71 5.017-3 5l-4 4c.7 3.128 1.2 6.294 1.5 9.5a531.54 531.54 0 0 1 0 43 7.75 7.75 0 0 1 5.5-.5c1.85-2.018 3.85-3.851 6-5.5 1.33.667 2.33 1.667 3 3a221.46 221.46 0 0 1-16.5 23c-2.9 6.082-1.74 7.249 3.5 3.5a211.94 211.94 0 0 1 38-21 40.86 40.86 0 0 0 11.5-2.5c2.59 1.187 3.09 3.02 1.5 5.5-16.9 11.201-34.56 21.201-53 30 11.16 5.411 22.16 11.078 33 17 3.23 1.724 3.56 3.724 1 6l-25.5-10.5-1.5.5c3.89 2.387 6.89 5.553 9 9.5-.37 1.41-1.2 2.41-2.5 3a98.87 98.87 0 0 0-19.5-8c-1.54 12.81-4.7 25.476-9.5 38l-27 57 24.5-22.5a66.86 66.86 0 0 1 6-2.5c3.46 1.61 3.96 3.943 1.5 7-3.87 4.552-8.71 7.385-14.5 8.5l-14 16c3.5-1.102 7.17-1.935 11-2.5.26 1.478-.07 2.811-1 4-4.01.73-6.17 3.063-6.5 7-2.09 1.294-4.25 2.46-6.5 3.5l16.5-2.5c3.41-.078 6.57.59 9.5 2 .27 1.95-.39 3.45-2 4.5l14 1c1.89 1.08 2.23 2.41 1 4-16.69.23-33.36.73-50 1.5.41 22.03-.09 44.03-1.5 66-1.36.88-2.86 1.21-4.5 1a112.14 112.14 0 0 0-.5-15c-2.82-5.08-3.98-10.58-3.5-16.5l2.5-31.5c-13.8 25.93-26.8 52.27-39 79-1.11 1.54-2.61 2.2-4.5 2 2.46-8.61 5.8-16.94 10-25-.35-1.2-.85-1.2-1.5 0l-37 57c-2.964 3.97-6.297 7.63-10 11-10.519-1.77-20.852-4.44-31-8a270.04 270.04 0 0 1-17 26 178.58 178.58 0 0 1 .5 7c-1.89.2-3.39-.46-4.5-2-2.21 2.79-5.044 3.62-8.5 2.5a389.21 389.21 0 0 0-29.5-10.5c-6.131 5.8-11.964 11.97-17.5 18.5l-17 13c-6.362.85-12.696 1.85-19 3-4.706 3.62-10.039 5.12-16 4.5-14.037-2.17-28.037-4.67-42-7.5-8.604-2.3-16.271-6.14-23-11.5-1.724 1.16-3.39.99-5-.5 1.017-1.05 1.184-2.22.5-3.5l-6-4-5 6a12.92 12.92 0 0 1-.5-5c-22.475 7.1-44.641 15.1-66.5 24-2.185 1.26-4.352 1.26-6.5 0-5.658 2.16-11.324 4.16-17 6-7.832-6.33-15.832-12.49-24-18.5-11.932-12.94-24.766-24.77-38.5-35.5-.497 2.65-.664 5.31-.5 8-1.644.21-3.144-.12-4.5-1a166.82 166.82 0 0 1-5-27c-3.206-1.6-6.539-2.93-10-4a464.55 464.55 0 0 0-20 29c-1.614 2.45-3.114 2.28-4.5-.5 6.12-10.29 12.453-20.46 19-30.5l-35-11.5c-4.754-1.03-6.421-3.7-5-8-.916-.37-1.75-.87-2.5-1.5-2.673.83-5.007 2.17-7 4-2.65-1.07-4.15-3.07-4.5-6-1.716-.5-3.383-.83-5-1-4.059-9.01-7.226-18.34-9.5-28l-12.5-50c-1.467.22-2.967.56-4.5 1l-16.5 28.5c3.458 6.42 7.291 12.59 11.5 18.5 2.308 2.76 4.975 5.09 8 7 .14 1.76-.36 3.42-1.5 5 3.108 4.61 6.775 8.78 11 12.5a20.74 20.74 0 0 0 10 3c.951.72 1.117 1.55.5 2.5-5.79 1.88-10.957.71-15.5-3.5-10.331-12-19.497-24.83-27.5-38.5l-29.5 60-4 2c-1.539 3.25-3.206 6.41-5 9.5-1.293.49-2.627.66-4 .5 9.705-21.94 18.538-44.27 26.5-67 2.433-6.03 5.266-11.87 8.5-17.5a591.91 591.91 0 0 0-14-25.5c-17.384 4.68-35.051 7.84-53 9.5a1129.95 1129.95 0 0 0-36 7.5c-1.22-.39-1.887-1.22-2-2.5 2.146-3.12 5.146-5.12 9-6 18.444-5.26 36.777-10.93 55-17 6.611-1.82 13.278-3.32 20-4.5-1.393-6.463-4.56-11.796-9.5-16-2.477-11.246-6.477-21.913-12-32-4.783 11.811-7.95 23.811-9.5 36-1.788 2.291-3.788 4.457-6 6.5-1.496.507-2.663.007-3.5-1.5 2.914-18.322 7.414-36.322 13.5-54a10.26 10.26 0 0 0-1.5-4L366.5 955a8.43 8.43 0 0 1-4 .5c.006-3.018 1.006-5.684 3-8l-1-1c-1.673 1.586-3.673 2.253-6 2a8.43 8.43 0 0 1 .5-4c2.589-1.711 5.089-3.545 7.5-5.5l-2-.5-48 12c.203-1.89-.463-3.39-2-4.5.667-1.333 1.667-2.333 3-3l64-16.5a301.29 301.29 0 0 0-29-15.5c-4.039-2.279-3.872-4.112.5-5.5 12.245 4.785 24.245 10.452 36 17a493.62 493.62 0 0 0-5-33l-19 5c-5.466.542-6.633-1.291-3.5-5.5a117.15 117.15 0 0 1 22-4.5c.422-4.222-.245-8.222-2-12-21.573 14.96-42.24 31.126-62 48.5-4.159-.708-8.159-.374-12 1-.472-2.399.528-4.399 3-6 6.155-4.911 12.489-9.577 19-14a1589.9 1589.9 0 0 1 49-46c-10.451.517-20.785 2.017-31 4.5-2.262-.845-2.929-2.178-2-4 3.66-2.473 7.66-4.306 12-5.5a1502.58 1502.58 0 0 0-67 3.5c-3.922-.334-7.922-.501-12-.5-4.13-2.417-3.797-4.25 1-5.5a34.97 34.97 0 0 0 14 .5c28.918-3.962 57.584-8.795 86-14.5-7.411-16.212-15.411-32.046-24-47.5.145-.772.478-1.439 1-2 2-.667 4-.667 6 0a256.63 256.63 0 0 0 16.5 21.5 222.42 222.42 0 0 1 6-29c3-5.333 6-5.333 9 0l13.5-35a939.1 939.1 0 0 0-72.5 10c-3.749-.577-4.249-2.077-1.5-4.5l82-21.5-81-60.5c-2.057-1.719-3.724-3.719-5-6 .507-2.341 1.674-2.841 3.5-1.5.483-.948.649-1.948.5-3l71 39.5c6.356 3.349 12.69 6.349 19 9-7.118-17.31-12.284-35.143-15.5-53.5 1.049-1.017 2.216-1.184 3.5-.5a468.83 468.83 0 0 1 21.5 40.5 20.64 20.64 0 0 1 2-6c8.995-9.995 16.828-20.828 23.5-32.5a807.13 807.13 0 0 1-37-57c.837-1.011 1.17-2.178 1-3.5 2.882.108 5.215 1.274 7 3.5 11.898 11.229 23.065 23.063 33.5 35.5-.686-4.041-2.186-7.875-4.5-11.5.854-1.022 1.854-1.855 3-2.5 5.113 3.61 9.78 7.777 14 12.5.667.667 1.333.667 2 0 7.848-7.681 15.515-15.514 23-23.5a823.99 823.99 0 0 1-12-24.5c.469-3.822 1.969-4.322 4.5-1.5 3.306 7.946 7.139 15.612 11.5 23a349.63 349.63 0 0 0 17-14.5L498 548.5c-2.615-4.283-5.615-8.283-9-12-.398-5.145 1.769-6.312 6.5-3.5a1159.55 1159.55 0 0 0 38.5 40.5c5.888-9.733 7.055-20.066 3.5-31-11.018-5.666-21.684-11.499-32-17.5 1.128-2.065 2.794-2.732 5-2 8.542 4.702 17.209 9.202 26 13.5.395-6.602-.105-13.269-1.5-20-8.387-9.721-17.387-18.721-27-27-.68-2.476.153-4.309 2.5-5.5 1.333-.667 2.667-.667 4 0a443.72 443.72 0 0 0 19 16.5 1197.71 1197.71 0 0 1 .5-43c.561-.522 1.228-.855 2-1 2.319 1.991 3.819 4.491 4.5 7.5a507.62 507.62 0 0 1 4.5 45.5c8.908 6.538 18.074 12.705 27.5 18.5 3.289 1.959 3.623 4.125 1 6.5-8.803-5.637-17.47-11.471-26-17.5-.832-.688-1.498-.521-2 .5 6.718 7.376 14.385 13.709 23 19 1.33 1.847.997 3.347-1 4.5l7 3.5a4.85 4.85 0 0 1 1 4c-8.027-2.953-16.193-5.62-24.5-8l-1.5.5c.906 1.699 1.239 3.533 1 5.5 4.723 1.859 9.39 4.026 14 6.5.691 1.067 1.191 2.234 1.5 3.5 9.586-6.211 19.419-12.044 29.5-17.5-2.399-.711-4.732-.544-7 .5-1.381-.5-2.047-1.5-2-3a570.58 570.58 0 0 0 8.5-32c-5.342 8.682-10.175 17.682-14.5 27a4.85 4.85 0 0 1-4 1c6.058-17.452 14.725-33.452 26-48a4.85 4.85 0 0 1 4-1l-9.5 31c-1.987 6.603-3.321 13.269-4 20a94.2 94.2 0 0 0 17-7c1.5 3.833 3.333 4 5.5.5 10.03-3.183 19.697-7.183 29-12-8.798-8.62-17.132-17.62-25-27 1.51-2.755 3.843-3.921 7-3.5-.203 1.89.463 3.39 2 4.5l33.5 19.5c2.433-.979 4.933-1.645 7.5-2-2.096-22.688-2.762-45.355-2-68zm4 28c3.602 11.74 6.602 23.74 9 36-2.327.165-4.493.831-6.5 2-1.828-12.601-2.661-25.268-2.5-38zm52 26c1.175-.219 2.175.114 3 1-2.688 2.854-5.188 5.854-7.5 9a18.99 18.99 0 0 1-1.5-8c2.286-.095 4.286-.762 6-2zm-17 5h3c.166 4.014-.001 8.014-.5 12-2.628 1.626-4.961 3.626-7 6a43.23 43.23 0 0 1 .5-16c1.526-.494 2.859-1.161 4-2zm-71 1c7.096 3.913 14.096 8.08 21 12.5-2.344 1.028-4.677 1.694-7 2a284.89 284.89 0 0 1-14-14.5zm56 4c.413 3.678-.421 7.344-2.5 11l-2.5-8c1.645-1.196 3.311-2.196 5-3zm5 3c1.317 6.178 1.317 12.512 0 19l-6 5a122.67 122.67 0 0 0-18-3.5c4.377-4.698 5.044-10.031 2-16 2.147-2.22 4.814-3.387 8-3.5.986 5.46 2.486 10.793 4.5 16 1.396 2.027 3.062 2.36 5 1a78.17 78.17 0 0 1 4.5-18zm-28 5c1.844.704 2.344 2.037 1.5 4-3.339-1.013-3.839-2.347-1.5-4zm58 0c19.659 1.478 35.826 9.811 48.5 25a33.9 33.9 0 0 1 3.5 6c-1.954 4.026-.954 6.693 3 8 3.036 17.223 4.536 34.556 4.5 52-.265-2.151-1.265-3.818-3-5-1.5.167-2.333 1-2.5 2.5a265.88 265.88 0 0 0 5.5 17.5c.667 3.667.667 7.333 0 11-2.039-1.757-3.539-3.924-4.5-6.5-2.215-1.044-4.548-1.71-7-2a18.33 18.33 0 0 0-6-4l-8-10c-1.707-.195-3.374-.195-5 0-13.6-12.397-25.433-26.231-35.5-41.5a18.99 18.99 0 0 1-1.5-8c-1.644.214-3.144-.12-4.5-1-2.988-4.308-5.155-8.975-6.5-14h5a12.93 12.93 0 0 1 .5-5l13.5-25zm81 2c2.707 2.747 4.373 6.08 5 10l-12 1.5a40.93 40.93 0 0 0 7-11.5zm-267 1a750.12 750.12 0 0 0 10 50.5c-.601 1.605-1.601 2.938-3 4l-9 5.5c6.184-9.155 7.518-18.988 4-29.5a7.25 7.25 0 0 0 2-2.5c-1.842-2.855-2.842-6.022-3-9.5a112.3 112.3 0 0 1-1-18.5zm120 0a129.78 129.78 0 0 0 11 7.5c-3.921.203-7.755.703-11.5 1.5l-5.5-5.5c2.118-1.082 4.118-2.249 6-3.5zm54 3c1.773.814 2.273 2.148 1.5 4-2.936 4.873-5.603 9.873-8 15-2.696-1.085-4.863-2.751-6.5-5 .399-1.697.899-3.363 1.5-5 1.73-.009 3.563-.342 5.5-1l6-8zm-67 2c2.386.873 4.386 2.373 6 4.5a56.47 56.47 0 0 1-15 0c3.323-1.04 6.323-2.54 9-4.5zm128 1c2.43 4.696 4.764 9.53 7 14.5l-1.5 1.5c-3.318-4.786-5.151-10.119-5.5-16zm-213 18a182.92 182.92 0 0 1-13-3c-1.657-2.589-1.991-5.256-1-8l14 11zm249-11h4c1.318 5.642 3.485 10.975 6.5 16a535.05 535.05 0 0 0 16.5 14.5c4.037-.159 4.871-1.992 2.5-5.5-.667-7.667-.667-15.333 0-23 5.821 1.994 11.321 4.661 16.5 8 2.299 4.194 2.966 8.527 2 13-5.915.307-11.249 2.141-16 5.5.655 1.487 1.655 2.653 3 3.5 6.472-3.703 13.472-5.703 21-6a23.93 23.93 0 0 1-2.5 13c-5.065 2.067-8.399 5.733-10 11L811.5 623c-1.1.432-1.767-.068-2-1.5a273.73 273.73 0 0 1 9.5-20 8.43 8.43 0 0 0 .5-4 4.85 4.85 0 0 0-4 1c-.73 2.609-1.23 5.276-1.5 8-3.726 4.728-7.059 9.728-10 15-1.333 1.333-2.667 1.333-4 0 1.025-3.905 2.525-7.739 4.5-11.5-.949-.617-1.782-.451-2.5.5a22.98 22.98 0 0 0-2 5 28.93 28.93 0 0 0-1.5-4c-1.151-1.231-2.317-1.231-3.5 0-.913-6.17-2.247-12.17-4-18a312.28 312.28 0 0 0-5.5-43.5c2.596-1.136 5.263-1.969 8-2.5v-4a12.71 12.71 0 0 0-8 2c-1.833-1.468-2.166-3.135-1-5 1.342 1.505 3.008 2.172 5 2-.636-2.606-.636-5.106 0-7.5 6.912-4.026 14.245-6.526 22-7.5zm14 1c1.765-.961 3.765-1.295 6-1 .202 2.489-.298 4.823-1.5 7-1.363-2.184-2.863-4.184-4.5-6zm-123 45c-.044-4.054-2.044-6.721-6-8 1.548-5.479 3.381-10.812 5.5-16a517.21 517.21 0 0 0 14 27c2.755 4.589 6.588 7.922 11.5 10a70.83 70.83 0 0 0 9 10.5c-3.452 1.226-6.785 2.726-10 4.5-1.39 1.995-.89 3.328 1.5 4 3.852-1.283 7.519-2.95 11-5 1.758.969 2.258 2.136 1.5 3.5-9.412 7.246-20.079 10.246-32 9-6.623 1.875-13.29 3.542-20 5-41.312 19.567-78.812 44.733-112.5 75.5-3.7-3.134-7.867-4.134-12.5-3-3.477-18.181-3.977-36.514-1.5-55a725.85 725.85 0 0 0 6 47 8.01 8.01 0 0 0 5.5 2l-4.5-44-4.5-16c-2.629-1.55-4.463-.884-5.5 2a532.07 532.07 0 0 0-4 39l-13.5-37c-2.109-2.602-3.776-2.269-5 1-.441 1.645-.774 3.311-1 5l6.5 42c-9.03-9.364-18.363-18.364-28-27l-2 2-8.5-10.5c-1.68-.034-3.18-.201-4.5-.5-1.158.498-1.991 1.331-2.5 2.5a208.09 208.09 0 0 1 5.5 12.5l4 2 29.5 47.5c-16.918-.245-33.752-1.745-50.5-4.5-3.592 1.759-3.926 3.759-1 6 1.144-.411 2.311-.744 3.5-1l48 8.5-6 1a806.19 806.19 0 0 1-42.5 19.5c-.884 2.141-.384 3.807 1.5 5 16.694-4.062 33.194-9.062 49.5-15 1.622.454 2.788 1.454 3.5 3-22.718 24.575-40.884 52.242-54.5 83l-21 56a27.57 27.57 0 0 1-11.5 1.5c.906-1.699 1.239-3.533 1-5.5-4.629 2.639-9.629 4.806-15 6.5l-41 11.5c-2.607-35.872.559-71.205 9.5-106a1279.62 1279.62 0 0 1 21.5-60c3.819.028 4.819-1.638 3-5-.018-1.873.482-2.206 1.5-1a151.67 151.67 0 0 1 2 20c1 1.333 2 1.333 3 0 1.12-9.518.286-18.851-2.5-28l7-16c10.997-9.472 19.83-20.472 26.5-33a1835.78 1835.78 0 0 1 51.5-50.5c7.081-3.043 13.748-6.876 20-11.5 1.369 1.624 3.036 2.124 5 1.5.245-2.089.245-4.089 0-6 7.722-6.055 15.722-11.722 24-17l72-37c17.568-1.446 34.901.221 52 5 1.599 1.066 2.599 2.566 3 4.5a289.85 289.85 0 0 0-8.5 22 66.14 66.14 0 0 1-23.5-23.5c1.5-3.833.333-5-3.5-3.5-.899-1.827-2.233-3.16-4-4-1.5.167-2.333 1-2.5 2.5 3.883 6.713 6.717 13.547 8.5 20.5 6.445 11.379 11.612 23.212 15.5 35.5-2.102 7.244-4.436 14.411-7 21.5 1.592 3.033 3.926 3.699 7 2a139.25 139.25 0 0 0 7-19 35.39 35.39 0 0 0 11.5-5c4.188 4.835 9.022 8.835 14.5 12 1.402-.365 2.402-1.199 3-2.5l-2.5-4.5c-4.263-2.428-8.097-5.428-11.5-9 2.495-3.647 3.829-7.647 4-12h-4zm118-44c2.058 2.427 3.891 5.093 5.5 8 1.333 1.333 2.667 1.333 4 0 .549 4.117 2.216 4.784 5 2l1-10a67.23 67.23 0 0 1-.5 20c-7.326-4.984-12.326-11.65-15-20zm-200 3a12.93 12.93 0 0 1 5 .5c-3.452 1.226-6.785 2.726-10 4.5-1.333-1-1.333-2 0-3 1.836-.528 3.503-1.194 5-2zm-15 9a869.93 869.93 0 0 0-33 18.5 34.35 34.35 0 0 0-7 7c-3.021.673-6.021 1.007-9 1a530.59 530.59 0 0 1 46-27.5c.917.627 1.917.961 3 1zm279 4c-1.553 2.754-3.886 3.587-7 2.5 2.15-1.411 4.484-2.245 7-2.5zm-378 7c8.27 8.772 16.77 17.438 25.5 26-1.496 2.831-3.829 5.164-7 7a951.59 951.59 0 0 1-18.5-33zm46 0a92.52 92.52 0 0 0 12 4.5c-3.08 2.29-6.247 4.457-9.5 6.5-1.31-3.57-2.143-7.237-2.5-11zm320 0c7.315-.344 7.481 1.322.5 5a12.93 12.93 0 0 1-.5-5zm12 0a188.26 188.26 0 0 1 21 1.5c-7.693.52-15.36.854-23 1 .881-.708 1.547-1.542 2-2.5zm121 0a770.55 770.55 0 0 1-30.5 50l-3.5-5.5a748.87 748.87 0 0 1 34-44.5zm-79 6c7.077.394 14.077 2.228 21 5.5 1.098 2.498.932 4.998-.5 7.5-7.499-3.341-14.332-7.675-20.5-13zm-88 50c1.333-.333 1.333-.667 0-1a70.85 70.85 0 0 1 10-10c.333 1.333.667 1.333 1 0 3.431-3.092 6.431-6.592 9-10.5 10.849-6.98 10.182-8.48-2-4.5a282.38 282.38 0 0 0 20-21.5c14.861-1.449 29.361.384 43.5 5.5a444.8 444.8 0 0 0 10 32c1.079 1.894 2.413 2.227 4 1 .118-9.546-1.382-18.879-4.5-28l1-2a77.37 77.37 0 0 1 14.5 11l1 10c2.601 3.938 5.101 3.938 7.5 0 .808.308 1.475.808 2 1.5l-22 10c-1.349 1.635-1.182 3.135.5 4.5 8.22-4.181 16.72-7.348 25.5-9.5l27.5 38.5c1.656 3.253 1.823 6.587.5 10-43.531-15.025-88.198-20.191-134-15.5 13.181-8.427 26.848-16.093 41-23a39.99 39.99 0 0 0 7.5-7.5c.774-1.903.44-3.57-1-5a909.23 909.23 0 0 0-60 36 34.04 34.04 0 0 0-7.5-1.5c4.97-2.975 9.304-6.642 13-11-1.667-.667-3.333-.667-5 0-4.865 1.096-9.531 2.429-14 4a42.98 42.98 0 0 0 11-13.5zm-136-35c-.774 3.014-2.107 5.681-4 8-2.633-5.407-4.966-5.24-7 .5 4.292 4.93 2.959 7.097-4 6.5.986-3.943 1.652-7.943 2-12-1.322.17-2.489-.163-3.5-1a59.83 59.83 0 0 0-7.5-14.5c3.229 1.376 6.396 3.209 9.5 5.5.617.949.451 1.782-.5 2.5 1.358 2.026 2.191 4.193 2.5 6.5 1.356.88 2.856 1.214 4.5 1-.319-2.25.181-4.25 1.5-6 1.509 2.419 3.675 3.419 6.5 3zm270-5c-3.59 5.436-7.423 10.77-11.5 16l-2.5-2.5c3.908-5.348 8.575-9.848 14-13.5zm-434 6c-.738 2.26-1.738 2.427-3 .5.948-.483 1.948-.649 3-.5zm105 0c5.087 15.516 7.92 31.516 8.5 48-1.183 1.231-2.349 1.231-3.5 0l-5-48zm38 5c1.773.814 2.273 2.148 1.5 4-1.188-1.063-1.688-2.397-1.5-4zm-148 6c-.473 1.406-1.473 2.073-3 2 .473-1.406 1.473-2.073 3-2zm-5 4c-.762 1.762-2.096 2.762-4 3 .762-1.762 2.096-2.762 4-3zm-5 4a324.97 324.97 0 0 0-15.5 15l-1.5-1.5c5.273-5.118 10.939-9.618 17-13.5zm220 13l10 9-2 1a217.91 217.91 0 0 0-18-1.5l-1-1c4.394-1.582 8.061-4.082 11-7.5zm-307 3a1243.62 1243.62 0 0 0 29.5 30c-.31 3.189-1.81 5.855-4.5 8-9.138-12.138-17.471-24.804-25-38zm66 1c1.025.397 1.192 1.063.5 2l-22 22c.398-2.131 1.398-4.131 3-6 6.062-6.23 12.229-12.23 18.5-18zm233 11a181.84 181.84 0 0 1 25 2.5l11 13c-21.41 13.074-40.744 28.741-58 47-1.735.651-3.402.485-5-.5-.692.525-1.192 1.192-1.5 2a1170.28 1170.28 0 0 0-5-41c-.718-.951-1.551-1.117-2.5-.5-.147 15.366 1.186 30.699 4 46-4.511 4.845-9.345 9.345-14.5 13.5-3.084-13.421-5.918-26.921-8.5-40.5-1.148-3.86-2.814-4.193-5-1 3.537 15.393 6.371 30.893 8.5 46.5a70.93 70.93 0 0 0-11 17c-4.794 5.8-10.46 10.467-17 14 .958-2.287.124-3.953-2.5-5-1.909.848-3.909 1.182-6 1 .763 3.638-.57 5.138-4 4.5-11.689-7.845-23.022-16.178-34-25-2.141-.884-3.807-.384-5 1.5 10.92 9.466 22.586 17.966 35 25.5a13.92 13.92 0 0 1 3 4c.949.617 1.782.451 2.5-.5l2.5 5-3 6c.124.607.457.94 1 1-1.821 3.625-4.155 6.958-7 10-5.711 3.378-10.044 8.045-13 14 .124.607.457.94 1 1-5.23 9.554-11.23 18.554-18 27l1 2c-10.895 23.176-20.729 46.843-29.5 71-2.287 3.28-4.12 6.78-5.5 10.5l1 3c-14.109 39.76-21.443 80.76-22 123l5.5 81.5c-1.206 4.15-3.873 6.48-8 7-5.883-.54-11.716-1.37-17.5-2.5-10.118-4.23-20.118-8.73-30-13.5-2.922-6.26-5.756-12.59-8.5-19L475.5 996l29.5-45.5a8.43 8.43 0 0 0 .5-4c-3.938.135-7.272 1.635-10 4.5a194.75 194.75 0 0 0-22.5 24.5c-1.512-22.979-1.845-45.979-1-69 4.517-28.931 11.183-57.265 20-85l6.5-13 30.5-47a24.63 24.63 0 0 1 9.5-9c1.247-1.542 1.247-3.042 0-4.5 3.954-4.742 7.787-9.576 11.5-14.5 5.838 16.858 9.505 34.192 11 52 .928 1.835 2.094 2.168 3.5 1a989.88 989.88 0 0 1 .5-32l1 8c2.8 1.618 4.3.785 4.5-2.5-2.369-14.463-3.369-28.963-3-43.5l32-4.5c3.519-.395 6.852-1.395 10-3 1.491-2.022 1.158-3.688-1-5-7.732-.824-15.399-1.824-23-3a793.45 793.45 0 0 1 37-30l55-36a123.91 123.91 0 0 1 24-9.5l3 2c6.025-2.118 12.025-1.785 18 1 1.988-.789 2.321-1.955 1-3.5a57.56 57.56 0 0 0-8-3c6.442-.851 12.775-.351 19 1.5 2.221.061 2.554-.605 1-2zm-266 9c3.064.481 3.898 1.814 2.5 4-1.481-.971-2.315-2.304-2.5-4zm359 1c1.273.577 1.273 1.243 0 2-.963-.47-.963-1.137 0-2zm57 2c16.951-.814 33.951.353 51 3.5a484.86 484.86 0 0 1 51 12.5c.163 2.357-.003 4.69-.5 7-7.428-2.915-14.428-6.582-21-11-2.848 1.522-3.181 3.522-1 6 9.133 3.728 16.8 9.395 23 17 1.756-1.862 3.256-3.862 4.5-6l2-10a50.53 50.53 0 0 1 12 6c-2.63 6.386-4.96 12.886-7 19.5 1.71 7.579 4.71 8.246 9 2l8-4c2.5-1.784 2.5-3.451 0-5l7-4.5c4.26 2.085 7.26 5.252 9 9.5 1.28.684 2.45.517 3.5-.5 1.23.775 1.56 1.775 1 3l-11 11c-1.6 1.869-2.6 3.869-3 6 1.05 1.017 2.22 1.184 3.5.5 5.03-4.699 9.7-9.699 14-15 .67-.667 1.33-.667 2 0 17.43 18.419 32.1 38.752 44 61-.66 2.462-.99 4.962-1 7.5a9.11 9.11 0 0 0 5-1 12.42 12.42 0 0 1 2.5 4c.05 3.365-.45 6.699-1.5 10 .98 2.277 1.64 4.61 2 7 2.17-.42 4.17-.42 6 0 .95 2.792.95 5.292 0 7.5a1679.21 1679.21 0 0 0-53 19.5c-1.64-1.205-1.97-2.538-1-4a11.97 11.97 0 0 1-2-7c2.81-10.579 5.31-21.245 7.5-32a127.55 127.55 0 0 0 .5-16c-2.41-.363-3.91.637-4.5 3a689.13 689.13 0 0 1-9 28c-14.66-37.325-36.49-69.825-65.5-97.5-24.883-21.768-53.883-34.268-87-37.5zm-29 2a201.49 201.49 0 0 1 47 5.5c-1.817 1.8-2.984 3.966-3.5 6.5-2.511 9.711-5.178 19.377-8 29l-5.5 9.5c.32 1.653 1.32 2.653 3 3a53.49 53.49 0 0 0-2.5 8.5c-9.308-23.637-24.141-42.97-44.5-58 4.743-1.473 9.41-2.806 14-4zm-378 1c-.958 1.462-2.124 2.795-3.5 4-.168-2.341.999-3.674 3.5-4zm340 6c1.418-2.208 3.418-3.042 6-2.5-1.907 1.122-3.907 1.955-6 2.5zm-7-2c-4.176 3.349-8.676 6.349-13.5 9-.495-1.973-.662-3.973-.5-6a80.68 80.68 0 0 0 14-3zm58 261c-1.924 1.59-2.257 3.424-1 5.5l-4 6c.813 1.885 2.147 2.551 4 2l35.5-44.5 14.5 4 10 92c-1.29.908-2.623.741-4-.5 2.286-10.261-1.547-17.094-11.5-20.5-.196-8.382-.696-16.715-1.5-25-2.891-1.178-5.891-1.845-9-2-1.153 9.692-.82 19.359 1 29a22.69 22.69 0 0 0-10 4.5c-2.875 3.044-5.875 5.877-9 8.5-14.739 4.415-29.739 7.582-45 9.5-3.094.471-4.761 2.304-5 5.5-4.284 1.478-4.951 3.811-2 7a11.28 11.28 0 0 1 6-3.5l43-5.5c.677 3.367 2.343 6.034 5 8a4.85 4.85 0 0 0-4 1c-5.194 11.898-11.528 23.06-19 33.5.813 1.88 2.147 2.55 4 2 4.393-2.38 8.226-5.55 11.5-9.5l14-20c5.843 2.832 10.843 6.832 15 12a122.14 122.14 0 0 0 14.5 18.5c2.308 1.87 4.975 2.87 8 3-3.519 21.88-10.352 42.72-20.5 62.5a855.72 855.72 0 0 1-15 30 538.18 538.18 0 0 0-13.5-28c11.069-7.47 16.236-17.81 15.5-31-2.611-6.81-7.611-10.15-15-10a35.97 35.97 0 0 0-10 2c-5.292-1.13-9.959.21-14 4-7.459-9.93-14.626-19.93-21.5-30a38.95 38.95 0 0 0-5 5.5 102.28 102.28 0 0 1 11.5 12.5 98.79 98.79 0 0 0 10 16c.66 3.03.16 5.87-1.5 8.5-8.001.27-16.001.1-24-.5v-3c-4.379-.21-8.713.13-13 1-2.384-.51-4.717-1.18-7-2-3.119 1.19-3.452 2.69-1 4.5 14.482 3.08 29.149 4.92 44 5.5a132.99 132.99 0 0 1 .5 8l-33 39c-.667 1.33-.667 2.67 0 4 .718.95 1.551 1.12 2.5.5 7.295-8.96 14.962-17.63 23-26 5.065-1.16 8.565-4.33 10.5-9.5 4.267 4.8 9.601 7.13 16 7l19.5 31.5a237.45 237.45 0 0 1-13.5 22.5 36.24 36.24 0 0 1-6.5 3.5c1.054 1.39 1.22 2.89.5 4.5-5.134 6.14-10.634 11.97-16.5 17.5a43.2 43.2 0 0 1-9 2c-3.278 1.81-6.611 3.31-10 4.5v-3c-11.712 3.47-23.712 5.47-36 6-13.842-3.44-26.676-9.11-38.5-17l-2.5 1c6.259 5.97 13.593 10.13 22 12.5-8.642.09-16.975-1.58-25-5a208.39 208.39 0 0 0-17-9c4.814-.37 7.148-2.87 7-7.5-2.619-.27-5.119.06-7.5 1l-.5-1.5 7-9c-1.399-.59-2.732-.43-4 .5l-1-1.5 3-5c-.405-.95-1.072-1.61-2-2 1.441-6.41 2.607-12.91 3.5-19.5a99.81 99.81 0 0 0 6.5-8l-.5-1c-1.71 1.44-3.544 2.28-5.5 2.5l4-21.5c-.108-.94-.441-1.78-1-2.5 5.872-19.9 11.038-39.73 15.5-59.5 2.483-1.76 2.983-3.93 1.5-6.5 3.567-2.8 4.233-5.97 2-9.5 2.875-3.27 3.875-6.94 3-11 8.153-30.293 15.653-61.293 22.5-93 8.084-49.132 12.251-98.466 12.5-148l3-29.5c-1.804-10.537-.637-20.704 3.5-30.5 2.544-1.502 4.71-3.336 6.5-5.5-.113-1.28-.78-2.113-2-2.5-1.913.873-3.747 1.873-5.5 3l-1-4c-4.285-1.307-5.451.193-3.5 4.5-.009 1.404-.509 2.57-1.5 3.5-1.62-5.812-1.787-11.645-.5-17.5-1.688-8.906-3.021-17.906-4-27 5.963-5.449 12.629-9.949 20-13.5-2.05 2.558-4.383 5.058-7 7.5.498 1.158 1.331 1.991 2.5 2.5a213.56 213.56 0 0 0 11.5-7.5c2.949-1.761 6.116-2.928 9.5-3.5 3.712 1.366 7.212 3.199 10.5 5.5 17.809 15.431 30.809 34.265 39 56.5-3.749.725-7.416 1.725-11 3-10.653-5.817-20.32-12.984-29-21.5-3.903-.775-6.903-2.775-9-6-2.107-.854-3.441-.188-4 2 1.703 4.495 4.703 7.495 9 9 13.217 13.053 26.884 25.553 41 37.5 1.381-.5 2.047-1.5 2-3-2.107-3.282-4.44-6.449-7-9.5 4.477 1.916 8.811 4.416 13 7.5 4.266 11.373 6.432 23.039 6.5 35 2.056 1.083 3.389 2.75 4 5a760.43 760.43 0 0 1 12.5 58.5 11.82 11.82 0 0 1-4.5 3.5c-4.662-1.339-9.162-3.173-13.5-5.5a1809.7 1809.7 0 0 0-50-27.5c-.952-1.033-.952-2.2 0-3.5-1.754-2.827-3.588-2.994-5.5-.5-1.364-.758-2.531-.258-3.5 1.5.522.561.855 1.228 1 2-4.19 5.81-3.357 6.643 2.5 2.5 3.414 6.29 7.914 11.79 13.5 16.5a175.46 175.46 0 0 0 22 12c7.146 5.645 14.146 11.478 21 17.5-.709 5.379-1.709 10.712-3 16-3.949 1.184-7.949 2.184-12 3-.209.586-.543 1.086-1 1.5.603 1.825 1.27 3.659 2 5.5l2 1c2.934-.92 5.934-1.587 9-2 1.819-.158 3.152.509 4 2l-31.5 32c-.514 3.832.986 4.832 4.5 3zm112-108c-1.422-.25-2.422-1.083-3-2.5-4.755-.093-5.755 1.74-3 5.5l22 7.5c4.72 4.712 10.39 7.712 17 9-1.16 3.428-2.16 6.928-3 10.5-4.31 3.143-8.48 6.477-12.5 10-.72 1.612-.554 3.112.5 4.5l-7.5 7.5c-.089 4.21 1.744 5.043 5.5 2.5 3.53-3.869 7.37-7.369 11.5-10.5.62-.949.45-1.782-.5-2.5 3.71-3.888 8.04-6.722 13-8.5a44.82 44.82 0 0 1 11 3 23.71 23.71 0 0 0 10.5-6c.67 8.333.67 16.667 0 25-1.46 18.043-3.96 35.709-7.5 53-4.36-.086-8.69-.42-13-1-.2 1.89.46 3.39 2 4.5 3.33.61 6.66 1.11 10 1.5-.53 5.459-1.7 10.792-3.5 16-11.89 22.659-21.22 46.326-28 71-1.01-.837-2.18-1.17-3.5-1a327.43 327.43 0 0 1-8.5-31l-11.5-30c2.333 1.611 4 1.111 5-1.5a193.24 193.24 0 0 1-4.5-12.5c-2.901-2.812-5.568-5.812-8-9a1748.59 1748.59 0 0 1-27.5-44 35.9 35.9 0 0 0 4-15 97.76 97.76 0 0 1-1.5-14c5.587-7.501 10.421-15.501 14.5-24-1.193-1.884-2.859-2.384-5-1.5L938 826.5c-1.753-1.127-3.587-2.127-5.5-3-1.083-.865-1.249-1.865-.5-3a486.37 486.37 0 0 0 12-27c1.546-10.148-1.121-11.481-8-4a275.02 275.02 0 0 0-16.5 30 11.38 11.38 0 0 1-2.5 2c-3.159-21.296-7.659-42.296-13.5-63 .98-1.481 2.147-2.815 3.5-4a376.94 376.94 0 0 0 12 23c1.724 3.23 3.724 3.564 6 1-2.385-8.794-5.385-17.46-9-26-1.022-.854-1.855-1.854-2.5-3 5.757-8.631 6.424-17.631 2-27a60.05 60.05 0 0 0 11-11.5 216.06 216.06 0 0 0 19-16c4.856-2.16 9.523-4.494 14-7-1.163-1.855-2.83-3.189-5-4-1.333-.667-2.667-.667-4 0-12.118 9.448-24.784 18.115-38 26-2.178.165-4.011-.668-5.5-2.5.302-21.706.136-43.373-.5-65l1.5-1c25.944 7.048 48.444 19.881 67.5 38.5 26.95 27.713 46.95 59.88 60 96.5-3.5 10.312-9.17 19.146-17 26.5-11.92.037-21.923-4.296-30-13a20.44 20.44 0 0 0-6.5-3.5c-1.5.167-2.333 1-2.5 2.5.544 1.585 1.211 3.085 2 4.5zm-513-146c.011-2.186 1.011-3.019 3-2.5-.873 1.045-1.873 1.878-3 2.5zm308-3c2.251 1.646 3.918 3.813 5 6.5-3.833 1.318-7.833 2.151-12 2.5-.278 1.846.389 3.18 2 4 4.336-2.152 8.67-1.819 13 1-2.354 1.746-3.354 4.079-3 7 1.762.143 3.429-.191 5-1 1.124 1.414 2.124 2.914 3 4.5a14.72 14.72 0 0 0-5 1.5c1.212 2.423 3.212 3.423 6 3l3 29-1 5-50 40.5c-7.557 5.889-15.39 11.389-23.5 16.5a1012.98 1012.98 0 0 0-9-57 20.49 20.49 0 0 1 0-9c5.053-6.059 10.553-11.892 16.5-17.5l24.5-20.5c.725 1.658 1.892 2.158 3.5 1.5a36.08 36.08 0 0 0 4.5-3.5c.684-1.284.517-2.451-.5-3.5 5.899-3.779 11.899-7.279 18-10.5zm292 2c-8.52 9.019-17.19 17.852-26 26.5-1.41.315-2.74-.018-4-1 9.3-9.483 19.3-17.983 30-25.5zm-167 17c.996 13.823 1.329 27.823 1 42-2.666-.433-5.332-.933-8-1.5-.928-.388-1.595-1.055-2-2 3.555-12.72 6.555-25.553 9-38.5zm-555 5c-1.528-.017-2.028-.684-1.5-2 .717.544 1.217 1.211 1.5 2zm0 0l77 41.5c-1.794 3.088-3.461 6.254-5 9.5-.865 1.083-1.865 1.249-3 .5-23.748-16.26-46.748-33.427-69-51.5zm71 2a400.13 400.13 0 0 1 13 25.5l-3.5 5.5c-4.081-10.075-7.248-20.409-9.5-31zm135 15c-.958-.453-1.792-1.119-2.5-2-1.167-4.313-1.834-8.647-2-13a390.12 390.12 0 0 0 4.5 15zm-30-13c7.34 8.153 14.34 16.653 21 25.5l-3 3c-7.282-8.33-13.282-17.83-18-28.5zm11 3c7.716 4.054 12.383 10.388 14 19-5.387-5.762-10.054-12.095-14-19zm30 20c2.607-1.302 5.273-1.136 8 .5-2.721.602-5.387.435-8-.5zm-5 7c1.984-.117 3.65.55 5 2-3.651 4.152-7.484 8.152-11.5 12 .309-5.613 2.476-10.28 6.5-14zm-12 1c1.548.321 2.215 1.321 2 3-1.052.149-2.052-.017-3-.5.752-.671 1.086-1.504 1-2.5zm155 205c.149-1.052-.017-2.052-.5-3-1.822 2.821-3.989 5.321-6.5 7.5-4.753 2.458-9.253 5.292-13.5 8.5-1.49-1.228-2.99-1.228-4.5 0a8.43 8.43 0 0 0-.5-4c-.712 4.711-2.545 8.878-5.5 12.5 1.808 2.041 2.474 4.207 2 6.5a18.28 18.28 0 0 1 5-7.5c9.8-7.073 20.133-13.406 31-19 4.971-5.816 10.638-10.65 17-14.5-2.279 2.223-3.112 4.889-2.5 8 3.305-2.441 4.472-5.441 3.5-9 5.305-5.134 10.805-10.134 16.5-15 .595 3.582 1.929 3.916 4 1a102.49 102.49 0 0 1 4.5-8.5c-.509-1.169-1.342-2.002-2.5-2.5a178.91 178.91 0 0 0-16 8c-.195-1.707-.195-3.374 0-5a17.73 17.73 0 0 0-5.5 8c-1.502.583-2.835 1.416-4 2.5l-47 24.5c-2.978-1.118-4.312-3.285-4-6.5 2.033-4.966 3.367-10.133 4-15.5-2.296 4.369-4.129 9.036-5.5 14-4.136-10.271-8.803-20.271-14-30l-4.5-5.5c-.949-.617-1.782-.451-2.5.5 1.052 15.378 4.552 30.212 10.5 44.5l-1 .5c-6.194-4.694-12.528-9.194-19-13.5-14.662-14.308-29.662-28.141-45-41.5 14.96-31.935 32.46-62.269 52.5-91 3.37-3.035 6.37-6.368 9-10 10.622 6.562 21.789 11.895 33.5 16 .304-.65.637-1.317 1-2l-3-4c2.292.256 4.459-.077 6.5-1l1 4c2.476 1.563 3.976.896 4.5-2-3.511-14.555-6.511-29.221-9-44 .029-1.529.696-2.696 2-3.5l-3-3c2.308-5.636 6.475-9.136 12.5-10.5l4 65c.953 2.092 2.286 2.425 4 1l.5-6a226.03 226.03 0 0 1-1.5-30c1.91 11.616 3.41 23.283 4.5 35 .828.915 1.828 1.581 3 2a252 252 0 0 0 25-16.5c15.891-13.526 32.058-26.692 48.5-39.5 1.469 3.158 2.469 6.491 3 10l.5 37a276.24 276.24 0 0 0-4 31 62.95 62.95 0 0 0 2 12c-1.417 8.351-3.417 16.518-6 24.5a66.68 66.68 0 0 1 2 5.5c-2.697 22.847-6.53 45.847-11.5 69l-14 84c-2.912 1.865-3.078 3.865-.5 6a9.9 9.9 0 0 0-2.5 5c-11.23 52.01-23.397 103.67-36.5 155-1.603-.19-2.937.31-4 1.5 1.14 1.97 2.473 3.81 4 5.5l-64 24-2-52.5c-.215-3.59.452-6.92 2-10-.111-1.72-.611-1.89-1.5-.5-1.406-9-1.573-18-.5-27l-1-2a22.15 22.15 0 0 1-4 3c-.774 4.28-1.274 8.61-1.5 13a11.27 11.27 0 0 1-3.5 6c-1.257-4.62-2.257-9.29-3-14h-4a220.74 220.74 0 0 0 5 29l-1 4c3.927 6.51 4.427 13.18 1.5 20-1.307 6.83-.141 7.5 3.5 2l6 28c-.07 1.27-.403 2.44-1 3.5-6.007 3.19-12.341 4.85-19 5-3.392-2.29-5.059-5.45-5-9.5-2.155.13-4.155-.37-6-1.5-16.931-12.15-32.265-26.15-46-42-1.612-.72-3.112-.55-4.5.5-.662-2.92-2.495-4.25-5.5-4 .04-3.38-.293-6.71-1-10a20.04 20.04 0 0 1 5 1c3.475-.79 3.808-2.29 1-4.5-2.264-.24-4.431-.74-6.5-1.5-.667-1-.667-2 0-3 4.748-2.79 4.581-5.12-.5-7-1.047-2.57-1.714-5.23-2-8a119.57 119.57 0 0 1 6.5-13 12.92 12.92 0 0 0 .5-5c-1.175-.22-2.175.11-3 1l-4.5 7c-1.501-6.49-1.668-12.99-.5-19.5-1.601-3.25-2.434-6.75-2.5-10.5-4.078-36.16-3.078-72.16 3-108 2.178-6.251 3.511-6.251 4 0a278.55 278.55 0 0 0 10-46 430.13 430.13 0 0 1 14.5-48c1.052-.149 2.052.017 3 .5 19.274 17.272 37.941 35.272 56 54 3.263 3.776 5.429 3.276 6.5-1.5.804 1.304 1.971 1.971 3.5 2 1.55-1.232 3.217-1.732 5-1.5l-7.5 24.5c-1.816-4.654-2.983-9.487-3.5-14.5 2.803-2.222 2.637-4.055-.5-5.5-2.509 1.329-4.342 3.329-5.5 6l-52 23.5 2 2c3.333.667 6.667.667 10 0 13.665-6.331 27.665-11.831 42-16.5 1.124 1.414 2.124 2.914 3 4.5.321 12.715-2.679 24.715-9 36l3 3c-1.213 2.687-1.88 5.52-2 8.5 1.644.214 3.144-.12 4.5-1a426.52 426.52 0 0 1 16.5-43.5c-.837-2.681-2.17-5.014-4-7l6.5-21.5c1.726-1.076 3.559-1.243 5.5-.5 1.848 2.179 4.015 4.013 6.5 5.5 2.051-2.309 1.884-4.476-.5-6.5a651.04 651.04 0 0 1 30-16.5 81.31 81.31 0 0 0 0 5.5c-2.932 3.442-6.265 6.275-10 8.5zm-122-203c23.825.433 23.825 2.099 0 5-1.237-.056-2.237-.556-3-1.5 1.21-1.039 2.21-2.206 3-3.5zm324 10c-.761.891-1.761 1.558-3 2-2.388-1.861-5.054-3.194-8-4a4.85 4.85 0 0 1-1-4 18.99 18.99 0 0 1 8 1.5c-.168 2.363 1.165 3.863 4 4.5zm-358-1c2.478 1.983 2.645 4.316.5 7-1.415-2.343-1.582-4.677-.5-7zm-17 8c2.367-1.414 4.867-2.748 7.5-4l.5 1a14.71 14.71 0 0 1-8 3zm365-4c1.585.502 2.085 1.502 1.5 3-1.039-.744-1.539-1.744-1.5-3zm14 0c1.237 1.243.904 2.243-1 3l-1-1c.743-.682 1.409-1.349 2-2zm-388 7c1.753-1.899 3.753-2.565 6-2-1.804 1.268-3.804 1.935-6 2zm166-3c1.431.381 2.264 1.381 2.5 3a369.25 369.25 0 0 0 6.5 32.5l-3 1.5a131.35 131.35 0 0 1-27-14.5 134.58 134.58 0 0 1 21-22.5zm-125 1c.624.417.957 1.084 1 2a380 380 0 0 0-1.5 25l-5.5-19.5c.386-3.878 2.386-6.378 6-7.5zm339 0h3c-.315 1.726-.481 3.393-.5 5 1.333 1.333 2.667 1.333 4 0 4.183 3.567 4.516 7.567 1 12l-5.5 5a180.65 180.65 0 0 1-6-18c2.269-.505 3.603-1.838 4-4zm-481 7c.543.06.876.393 1 1a305.87 305.87 0 0 0-24.5 94 179.92 179.92 0 0 1-8.5-9.5c8.194-29.415 18.861-57.915 32-85.5zm-8 2c.739-.131 1.406.036 2 .5-.571 1.205-1.238 2.372-2 3.5a38.85 38.85 0 0 0-7-1.5c2.504-.698 4.837-1.531 7-2.5zm-12 4c1.098.897 1.098 1.73 0 2.5-21.137 2.109-21.137 1.275 0-2.5zm251 5c5.032-.168 5.199.832.5 3-1.728-.852-1.895-1.852-.5-3zm39 22a108.51 108.51 0 0 1-28-13.5l1.5-1.5a148.99 148.99 0 0 0 26.5 15zm407-2c1.96.448 2.3 1.448 1 3-.89-.825-1.22-1.825-1-3zm-710 37c.077-6.218 1.244-12.218 3.5-18 1.251 6.58.085 12.58-3.5 18zm715-15h3a201.5 201.5 0 0 1-.5 59c-8.66 9.321-15.82 19.655-21.5 31 1.35 2.157 3.35 3.49 6 4a114.82 114.82 0 0 1-10 .5c-5.17 2.421-5.17 5.087 0 8 6.13 3.4 12.46 6.234 19 8.5-1.09 11.111-3.92 21.778-8.5 32-10.77 22.883-22.11 45.55-34 68-5.57 4.224-9.57 9.56-12 16-1.77.8-3.27 1.97-4.5 3.5a14.93 14.93 0 0 1 3 3.5c-6.91 12.83-14.08 25.5-21.5 38l-43 66-10.5 12.5a67.74 67.74 0 0 1-28-5.5c.689-1.94 1.189-3.94 1.5-6 24.33-34.31 44.83-70.97 61.5-110 1.97-.87 3.97-.71 6 .5 7.11 3.55 14.44 6.55 22 9 4.4 1.11 5.73-.39 4-4.5-1.86-1.03-3.19-2.53-4-4.5-8.03-4.01-15.7-8.51-23-13.5 6.92-24.265 16.09-47.599 27.5-70a31.98 31.98 0 0 1-3.5 14.5l.5 2.5c.67 1.333 1.33 1.333 2 0 2.12-12.046 4.45-24.046 7-36 1.25-.711 2.42-1.544 3.5-2.5a1269.16 1269.16 0 0 1 46 .5c.25-3.005-.75-5.505-3-7.5-15.08.021-30.08-.812-45-2.5 5.62-27.442 8.12-55.109 7.5-83 17.31-11.069 34.81-21.735 52.5-32zm-18 5l-34.5 21c-1.66-2.789-1.83-5.623-.5-8.5 11.44-4.867 23.1-9.034 35-12.5zm-364 12c-2.101-2.679-4.101-5.512-6-8.5 1.525-1.009 3.192-1.509 5-1.5l1 10zm316 0a8.43 8.43 0 0 1 4 .5c-1.33 1-1.33 2 0 3 1.28.684 2.45.517 3.5-.5 3.52 16.474-1.98 20.641-16.5 12.5.76-2.069 1.26-4.236 1.5-6.5 2.35-3.213 4.85-6.213 7.5-9zm-664 4a126.4 126.4 0 0 1 8.5 10 16.24 16.24 0 0 1 0 8c-3.118-5.901-5.951-11.901-8.5-18zm504 9c3.923 1.295 7.59 3.128 11 5.5-4.656.185-8.322-1.649-11-5.5zm-491 7c3.433 3.33 6.766 6.83 10 10.5-2.473 2.437-5.473 3.604-9 3.5a82.73 82.73 0 0 0-1-14zm640 0a28.44 28.44 0 0 0 4 1.5c-1.96.844-3.3.344-4-1.5zm-133 6c3.445.593 6.779 1.593 10 3-1.031 1.2-1.865 2.534-2.5 4a25.12 25.12 0 0 1-7.5-7zm36 3c2.155-.128 4.155.372 6 1.5-3.297 2.295-6.297 4.962-9 8 2.443 3.006 4.943 2.839 7.5-.5 2.793 2.489 5.46 2.155 8-1-1.166 3.344-2.666 6.678-4.5 10-.047 1.5.619 2.5 2 3 2.218-1.424 3.718-3.424 4.5-6 .423 3.642-.411 6.976-2.5 10-1.571-.809-3.238-1.143-5-1-.338 2.657.329 4.99 2 7-.645 1.146-1.478 2.146-2.5 3-3.269-2.401-5.436-5.401-6.5-9-2.266-.359-4.099.308-5.5 2a103.17 103.17 0 0 0-1.5-10c2.043-5.757 4.376-11.424 7-17zm-16 4c1.551 2.28 2.885 4.78 4 7.5a66.87 66.87 0 0 0-1.5 5.5 31.84 31.84 0 0 1-4.5-5c.982-2.596 1.649-5.262 2-8zm-520 4h4a9.86 9.86 0 0 1-1 6c-.951.826-1.951.992-3 .5.88-1.356 1.214-2.856 1-4.5-1.644-.214-3.144.12-4.5 1l-.5-1c1.449-.672 2.782-1.339 4-2zm-16 3c7.671 1.263 7.337 2.763-1 4.5-10.325.958-20.658 1.291-31 1a532.16 532.16 0 0 0 32-5.5zm526 6c2.652 1.962 2.652 3.962 0 6-1.194-2.016-1.194-4.016 0-6zm-510 6h4c.162 2.027-.005 4.027-.5 6a64.5 64.5 0 0 0-6.5 4c-3.26-4.732-2.26-8.065 3-10zm525 3c1.226 4.145 1.726 8.478 1.5 13-2.712-4.029-3.212-8.362-1.5-13zm-555 24a562.57 562.57 0 0 1 20.5-19c.758 2.269.591 4.436-.5 6.5-6.555 4.439-13.221 8.605-20 12.5zm561-18a19.41 19.41 0 0 1 6 6c-5.426 1.86-7.426-.14-6-6zm-12 2c.934 1.068 1.268 2.401 1 4-1.175.219-2.175-.114-3-1l2-3zm191 0c-.02 1.528-.68 2.028-2 1.5.54-.717 1.21-1.217 2-1.5zm-707 1c.889 4.322 1.556 8.822 2 13.5l-1 3.5a66.68 66.68 0 0 0-5.5 2 141.68 141.68 0 0 1-2.5-13.5l7-5.5zm545 5c.997-1.213 1.997-1.046 3 .5-1.077.47-2.077.303-3-.5zm-472 142c-2.884-4.74-6.051-9.41-9.5-14-.667-1.333-.667-2.667 0-4 1.892-1.117 2.725-2.784 2.5-5a12.93 12.93 0 0 1-5-.5 54.63 54.63 0 0 1 7-2c1.316-1.978.816-3.478-1.5-4.5a66.68 66.68 0 0 1-5.5 2l-39-46c-1.622-1.939-3.456-2.272-5.5-1-4.854-16.954-7.687-34.12-8.5-51.5a1021.64 1021.64 0 0 1 65-13.5 489.59 489.59 0 0 0-3 112.5c-1.119 3.408-1.786 6.908-2 10.5h3a258.94 258.94 0 0 1 2 17zm512-82c-1.289-1.748-2.789-2.081-4.5-1a12.49 12.49 0 0 0 0 7 626.55 626.55 0 0 0 19 55c.781 1.444.614 2.777-.5 4l-15.5 5c-1.605-1.564-3.438-2.064-5.5-1.5-12.219 5.56-24.552 10.4-37 14.5.102-11.68-.231-23.35-1-35a84.9 84.9 0 0 0 13-.5c.88-1.356 1.214-2.856 1-4.5h5c.214-1.644-.12-3.144-1-4.5a180.87 180.87 0 0 0-19-.5 1981.18 1981.18 0 0 0-10-93c3.266-.129 6.266-1.129 9-3l24.5 35c2.635 3.006 4.635 2.672 6-1 2.63 3.632 5.63 6.965 9 10a141.95 141.95 0 0 1 7.5 14zm126-55c1.42.209 2.76.709 4 1.5-1.96.844-3.3.344-4-1.5zm-448 5c4.648 8.403 8.648 17.236 12 26.5-.532 2.02-1.865 2.853-4 2.5l-8-29zm425 4c1.45-1.113 3.11-1.28 5-.5 4.38.843 8.38 2.343 12 4.5a7.35 7.35 0 0 1-2 3c-4.9-2.618-9.9-4.952-15-7zm-687 3a2345.04 2345.04 0 0 0 16.5 78 394.53 394.53 0 0 0 9.5 34c-.774 1.211-1.607 1.211-2.5 0l-4-8a314.99 314.99 0 0 0-15-42c-1.184-3.949-1.518-7.949-1-12 1.356-.88 2.856-1.214 4.5-1 .162-2.027-.005-4.027-.5-6-1.972-.805-3.472-2.139-4.5-4 1.154-2.602 1.654-5.268 1.5-8-2.454-1.513-4.121-.846-5 2a858.05 858.05 0 0 1-5.5-30.5l6-2.5zm333 0c-4.015 4.013-8.348 7.679-13 11 .329-2.491 1.329-4.657 3-6.5a66.78 66.78 0 0 1 10-4.5zm60 14c-.254 5.595-1.254 10.928-3 16 .254-5.595 1.254-10.928 3-16zm-220 40c.178-2.716.678-5.383 1.5-8 .703 2.982.203 5.649-1.5 8zm-196 2c-.502 1.585-1.502 2.085-3 1.5.744-1.039 1.744-1.539 3-1.5zm40 2c9.773 16.701 20.44 32.868 32 48.5a391.57 391.57 0 0 1-19 4.5 614.4 614.4 0 0 1-13-53zm490 11h5c.298 2.765 1.298 5.265 3 7.5 1.333.667 2.667.667 4 0 .55-1.845 1.55-3.345 3-4.5 1.981.605 2.315 1.605 1 3 .763 1.219 1.763 2.219 3 3-2.243.974-4.576 1.308-7 1v3c-3.36.116-6.693.449-10 1 .048 2.813.715 5.479 2 8-7.107 1.264-11.441-1.736-13-9 1.006-3.715 3.173-6.382 6.5-8 .617-.949.451-1.782-.5-2.5 1.071-.852 2.071-1.685 3-2.5zm-475 3a302.23 302.23 0 0 1 24 26.5 26.67 26.67 0 0 0-1.5 6.5c-9.004-10.018-16.504-21.018-22.5-33zm62 7a414.86 414.86 0 0 1-14 23c-1.147-2.265-1.314-4.598-.5-7 4.616-5.595 9.45-10.929 14.5-16zm421 10c.886-1.276 1.886-1.276 3 0-.925 1.062-1.925 1.062-3 0zm19 2c1.445 10.145 1.945 20.478 1.5 31a1008.38 1008.38 0 0 1-16.5-25.5l4-4c3.856-.177 7.523-.677 11-1.5zm-234 2c.739-.131 1.406.036 2 .5L681 997.5c-.691-2.391-1.691-2.391-3 0-2.44 5.97-6.607 10.31-12.5 13-1.889-1.1-3.555-2.44-5-4l34-27zm192 2c1.422.209 2.755.709 4 1.5-1.859 1.558-3.359 3.391-4.5 5.5-.018-2.297.149-4.631.5-7zm30 16c-3.69-2.691-6.69-6.024-9-10 .676-1.854 1.676-2.187 3-1 2.279 3.561 4.279 7.227 6 11zm-470-1c1.747 1.928 3.413 4.09 5 6.5l-21.5 5.5c-1.81-1.57-2.977-3.57-3.5-6 6.714-2.24 13.38-4.242 20-6zm176 50c6.922-9.43 14.755-18.09 23.5-26 3.025-4.93 1.858-8.27-3.5-10-1.419-3-.919-5.66 1.5-8 3.055-4.304 6.888-5.804 11.5-4.5 1.187 1.019 2.187 2.19 3 3.5-2.144.78-4.144 1.95-6 3.5a23.97 23.97 0 0 0 7.5 7.5c.309 1.27.809 2.43 1.5 3.5l-3.5 3.5-1-1-2 4-7.5-.5-2 5a659.78 659.78 0 0 0-23 19.5zm370-47h3c.315 1.73.481 3.39.5 5-1.699-.91-3.533-1.24-5.5-1 .308 3.51 2.308 5.18 6 5-21.462 51.28-49.295 98.62-83.5 142l-15.5-30.5a732.44 732.44 0 0 0 28.5-61.5c3.753-10.43 6.587-21.09 8.5-32 6.519 9.53 13.852 18.53 22 27 1.685 1.01 3.018.51 4-1.5l-25-35c19.519-3.45 38.519-9.28 57-17.5zm-569 9c-1.101-1.35-2.101-2.85-3-4.5 2.273.32 3.273 1.82 3 4.5zm-53 10c14.786-6.03 30.119-10.2 46-12.5 1.646 1.55 1.979 3.22 1 5a246.01 246.01 0 0 1-47 7.5zm633-13c4.27 1.82 4.6 2.48 1 2-.8-.46-1.13-1.12-1-2zm-553 2c.543.06.876.39 1 1l-12.5 23c-3.252-6-6.086-12.17-8.5-18.5a217 217 0 0 0 20-5.5zm225 4c-.849 4.78-2.849 5.61-6 2.5 1.478-2.04 3.478-2.87 6-2.5zm-221 1c1.696.19 3.029 1.02 4 2.5a997.51 997.51 0 0 1-15.5 25.5c-1.187-1.54-1.52-3.21-1-5l12.5-23zm183 3c4.708-.49 5.208.84 1.5 4-.791-1.24-1.291-2.58-1.5-4zm25 1c1.052-.15 2.052.02 3 .5 13.29 10.55 12.29 11.72-3 3.5-.792-1.2-.792-2.53 0-4zm-53 14a578.84 578.84 0 0 0 19.5-11c2.176.49 4.009 1.49 5.5 3-7.794 4.26-16.127 6.93-25 8zm50-6l11 5.5c-1.535 2.62-2.702 5.46-3.5 8.5l-10.5-10.5c1.21-1.04 2.21-2.21 3-3.5zm19 4c-1.528-.02-2.028-.68-1.5-2 .717.54 1.217 1.21 1.5 2zm0 0c1.527-.07 2.527.59 3 2-1.527.07-2.527-.59-3-2zm5 9l-4 3c-8.039-9.47-6.706-10.47 4-3zm-7 9a85.31 85.31 0 0 1-8-7.5c1.036-1.62 2.203-1.78 3.5-.5 1.777 2.56 3.277 5.23 4.5 8zm-249 22a123.55 123.55 0 0 1 9.5-24c.465 1.43 1.299 2.6 2.5 3.5a346.38 346.38 0 0 0-12 20.5zm51-24c1.203 1.44 1.703 3.11 1.5 5-1.269-1.4-1.769-3.07-1.5-5zm405 6c7.204.72 10.37 4.72 9.5 12-.663 3.54-2.163 6.54-4.5 9 3.486-8.38 1.82-15.38-5-21zm-6 3c8.023 2.76 10.19 8.09 6.5 16-6.117 9.5-8.451 8.83-7-2-1.734-.75-3.567-1.25-5.5-1.5 4.024-3.21 6.024-7.38 6-12.5zm-7 1c1.175-.22 2.175.11 3 1a20.3 20.3 0 0 1-7 8c-.882-1.26-1.882-2.43-3-3.5l7-5.5zm-11 17c3.534-1.29 7.201-1.29 11 0a17.76 17.76 0 0 1 2 8c-6.082-.14-10.415-2.81-13-8zm-2 7c3.857 1.93 6.857 4.76 9 8.5-4.612-.25-7.946-2.58-10-7 .556-.38.889-.88 1-1.5zm-364 4c1.793 1.93 2.793 4.26 3 7-1.793-1.93-2.793-4.26-3-7zm381 0c1.025.4 1.192 1.06.5 2-1.818 2.15-3.318 2.15-4.5 0a70.58 70.58 0 0 0 4-2zm-378 7c1.431 1.28 2.098 2.95 2 5-1.431-1.28-2.098-2.95-2-5zm392 23c-4.725-6.43-9.225-13.09-13.5-20-.183-2.78.984-3.45 3.5-2 3.533 7.27 6.866 14.61 10 22zm-343 0c1.864-1.29 3.864-1.29 6 0-1.901.73-3.901.73-6 0zm106 1c1.103 2.67.103 4.67-3 6l-1-1 4-5zm0 5c1.424 2.01 2.09 4.35 2 7-1.609.41-2.943.41-4 0 1.671-2.01 2.338-4.34 2-7zm1 10c1.148 4.48 1.315 9.15.5 14-2.526-4.7-2.692-9.37-.5-14zm239 1c.996-.09 1.829.25 2.5 1a294.79 294.79 0 0 0 15.5 24.5l-1 1c-6.29-.72-12.623-1.72-19-3a32.85 32.85 0 0 1-10-4c4.649-6.14 8.649-12.64 12-19.5z" opacity=".565"/><path d="M639.5 545.5c1.951-.273 3.451.393 4.5 2 3.523 20.427 7.523 40.76 12 61 .999 5.313 1.332 10.646 1 16-4.539 4.103-8.872 3.77-13-1-3.114-23.74-4.947-47.573-5.5-71.5a38.84 38.84 0 0 1 1-6.5zm4 29l5 48c1.151 1.231 2.317 1.231 3.5 0-.58-16.484-3.413-32.484-8.5-48z" opacity=".492"/><path d="M736.5 626.5c2.148-.111 2.481.556 1 2-.865 1.083-1.865 1.249-3 .5.881-.708 1.547-1.542 2-2.5zm38 123c1.213.997 1.046 1.997-.5 3-.47-1.077-.303-2.077.5-3z" class="D"/><path d="M632.5 750.5c2.483.23 2.983.897 1.5 2-1.03-.336-1.53-1.003-1.5-2zm135 0c1.188 1.996.521 2.829-2 2.5.881-.708 1.547-1.542 2-2.5z" class="B"/><path d="M637.5 752.5c2.125.868 2.291 1.868.5 3-1.683-.676-1.85-1.676-.5-3z" class="E"/><path d="M625.5 754.5c.876-.131 1.543.202 2 1-1.281 2.947-3.281 5.281-6 7-1.083-.865-1.249-1.865-.5-3 1.707-1.537 3.207-3.204 4.5-5zm189 7c4.738.102 4.738 1.435 0 4-1.126-1.308-1.126-2.642 0-4z" class="D"/><path d="M598.5 778.5c.667 0 1-.333 1-1 6.975-3.132 13.308-7.299 19-12.5.667-.667 1.333-.667 2 0-2.295 3.297-4.962 6.297-8 9a97.04 97.04 0 0 0-14 9c-1.259.982-2.592 1.315-4 1 1.165-1.992 2.498-3.825 4-5.5z" class="F"/><path d="M690.5 769.5c2.264-.719 4.597-1.052 7-1-3.267 9.194-.6 16.194 8 21 3.514-1.617 7.181-2.617 11-3 .079-1.43-.254-2.764-1-4 3.198-4.154 4.865-3.487 5 2 5.46-.986 10.793-2.486 16-4.5l-9-1.5v-4a118.86 118.86 0 0 0 27.5 0c2.37.1 4.203 1.1 5.5 3l-38.5 12c1.202 10.149 3.369 20.149 6.5 30-1.456 2.325-3.456 3.492-6 3.5 1.017-1.049 1.184-2.216.5-3.5a250.26 250.26 0 0 0-15-26c-2.838 1.175-5.671 1.009-8.5-.5a27.85 27.85 0 0 1-6-6.5l-41 7c.013-3.363 1.679-5.53 5-6.5a626.18 626.18 0 0 0 33-9.5v-8zm28 31l-1-10c-1.808-.009-3.475.491-5 1.5 1.899 2.988 3.899 5.821 6 8.5z" opacity=".519"/><path d="M599.5 777.5c-.667 0-1 .333-1 1-1.205-1.172-1.205-2.505 0-4 1-1.333 2-1.333 3 0l-2 3zm215-4c1.168 2.385.501 4.385-2 6-1.088-2.508-.422-4.508 2-6z" class="G"/><path d="M762.5 780.5c1.073.751 1.24 1.751.5 3-1.015 2.71-2.515 5.043-4.5 7-.872-1.966-.705-3.966.5-6 1.376-1.205 2.542-2.538 3.5-4z" class="H"/><path d="M812.5 782.5c2.547 1.79 2.214 3.456-1 5-.701-1.692-.367-3.358 1-5z" class="D"/><path d="M601.5 788.5c.039 1.256-.461 2.256-1.5 3-.585-1.498-.085-2.498 1.5-3zm210 5c.739-.131 1.406.036 2 .5-1.382 4.705-2.049 4.539-2-.5z" class="B"/><use xlink:href="#B" class="B"/><path d="M819.5 801.5c2.541 1.123 2.541 2.456 0 4-.792-1.2-.792-2.533 0-4z" class="C"/><path d="M740.5 804.5c.664 2.991-.336 5.657-3 8-.27-2.833.73-5.5 3-8z" opacity=".007"/><path d="M820.5 808.5c1.098 1.101 1.265 2.434.5 4-1.049 1.017-2.216 1.184-3.5.5.886-1.615 1.886-3.115 3-4.5z" class="C"/><path d="M737.5 814.5c1.121 1.589.954 3.256-.5 5-.837 1.507-2.004 2.007-3.5 1.5.734-2.561 2.067-4.727 4-6.5z" class="I"/><path d="M591.5 819.5c1.145 5.042-.855 8.208-6 9.5 1.636-3.448 3.636-6.615 6-9.5z" opacity=".025"/><path d="M818.5 820.5c1.175-.219 2.175.114 3 1-3.625 5.663-4.625 5.329-3-1z" class="G"/><path d="M731.5 832.5c.876-.131 1.543.202 2 1-1.093 3.188-2.926 5.855-5.5 8 .07-3.37 1.237-6.37 3.5-9z" class="F"/><path d="M561.5 836.5c.543.06.876.393 1 1-2.361 3.388-4.194 7.054-5.5 11-2.627 1.283-5.127 2.783-7.5 4.5-3.701.645-4.535-.522-2.5-3.5 5.46-3.784 10.293-8.117 14.5-13z" class="H"/><path d="M739.5 843.5c.789.283 1.456.783 2 1.5-4.198 5.958-4.864 5.458-2-1.5zm79 1c1.837.139 2.17.806 1 2-.798-.457-1.131-1.124-1-2zm-63 2c.997-.03 1.664.47 2 1.5-1.594 4.314-2.261 3.814-2-1.5z" class="C"/><path d="M819.5 848.5c2.552 1.663 2.386 3.33-.5 5-.64-1.765-.473-3.432.5-5z" class="E"/><use xlink:href="#B" x="-96" y="59" class="B"/><path d="M566.5 855.5c.739-.131 1.406.036 2 .5-.529 2.429-1.863 4.262-4 5.5l-1-1.5c.815-1.643 1.815-3.143 3-4.5zm170 1c1.073.751 1.24 1.751.5 3l-3 3c-.667-1-.667-2 0-3 1.045-.873 1.878-1.873 2.5-3zm82 3c2.473.447 2.64 1.447.5 3-.483-.948-.649-1.948-.5-3z" class="C"/><path d="M542.5 862.5c.768 3.803-.732 6.803-4.5 9-.692-.525-1.192-1.192-1.5-2l6-7z" opacity=".021"/><path d="M757.5 864.5c1.256-.039 2.256.461 3 1.5a71.1 71.1 0 0 0-5 5.5c-.867-2.643-.2-4.977 2-7z" class="E"/><path d="M816.5 866.5c2.484 1.528 2.318 3.194-.5 5-.384-1.697-.218-3.363.5-5zm-108 12c.188 1.603-.312 2.937-1.5 4-.348-1.64.152-2.973 1.5-4z" class="C"/><path d="M753.5 881.5c1.175-.219 2.175.114 3 1-4.963 8.328-5.963 7.995-3-1z" class="F"/><path d="M830.5 888.5c2.512.716 2.512 1.716 0 3-1.062-.925-1.062-1.925 0-3z" class="D"/><path d="M742.5 892.5c1.367 1.593 1.034 2.926-1 4l-1-.5c1.323-.816 1.989-1.983 2-3.5z" class="B"/><path d="M726.5 894.5c.972 3.559-.195 6.559-3.5 9-.612-3.111.221-5.777 2.5-8 .667 0 1-.333 1-1z" class="E"/><path d="M516.5 899.5c1.837.139 2.17.806 1 2-.798-.457-1.131-1.124-1-2z" class="C"/><path d="M709.5 910.5c.739-.131 1.406.036 2 .5-1.038 3.248-2.705 6.082-5 8.5-.459-3.294.541-6.294 3-9z" opacity=".018"/><path d="M814.5 910.5c1.846-.278 3.18.389 4 2-5.593 4.449-6.927 3.782-4-2z" class="E"/><path d="M720.5 914.5c.997-.03 1.664.47 2 1.5-.806 3.123-2.473 5.623-5 7.5l-1-.5 4-8.5z" class="J"/><path d="M695.5 925.5c1.213.997 1.046 1.997-.5 3-.47-1.077-.303-2.077.5-3zm-182 2c1.121 1.589.954 3.256-.5 5-.64-1.765-.473-3.432.5-5z" class="B"/><path d="M704.5 931.5c.417 3.578-.75 6.911-3.5 10-.271-3.801.896-7.134 3.5-10z" opacity=".011"/><path d="M812.5 935.5c1.676.683 2.343 2.017 2 4h-3c-.067-1.459.266-2.792 1-4z" opacity=".016"/><use xlink:href="#B" x="-91" y="149" class="B"/><use xlink:href="#B" x="-18" y="158" class="B"/><path d="M675.5 1011.5l3-2 1 1.5c-1.389 2.92-2.555 5.75-3.5 8.5a179.77 179.77 0 0 0 25.5 19.5c3.514 2.13 3.68 4.29.5 6.5-.85-.92-1.85-.92-3 0-5.298-2.48-10.464-5.14-15.5-8-.224 2.29-.891 4.45-2 6.5a45.78 45.78 0 0 0 6.5 9.5c1.004 5.23-.83 6.73-5.5 4.5a95.63 95.63 0 0 1-9-7.5c-3.994 4.83-7.827 9.83-11.5 15-.18-2.81.487-5.48 2-8 2.872-2.54 5.372-5.37 7.5-8.5-5.198-5.53-10.698-10.7-16.5-15.5a3.43 3.43 0 0 0-1.5 2.5c.982.38 1.648 1.21 2 2.5-.056 1.24-.556 2.24-1.5 3-1.561-3.16-1.728-6.33-.5-9.5-1.172-2.05-2.839-2.72-5-2a387.49 387.49 0 0 0-41 40 487.52 487.52 0 0 1 22 14.5c1.518-2.12 2.518-4.45 3-7v7c2.774-1.22 5.441-2.72 8-4.5 3.957.4 6.79-1.1 8.5-4.5.687 2.42.187 4.59-1.5 6.5-6.606 1.61-10.94 5.61-13 12 3.205 1.69 3.539 3.69 1 6 2.172 2.49 3.006 5.33 2.5 8.5-4.359-.41-8.025 1.26-11 5-.839 2.64-.339 4.97 1.5 7-.815 1.78-1.982 2.44-3.5 2-.216 1.88-.883 3.55-2 5-.502-3.74-.502-7.41 0-11l-9.5 7.5c-2.107.85-3.441.19-4-2 2.926-6.94 7.426-12.77 13.5-17.5.688-.83.521-1.5-.5-2l-51 9c.244-2.76 1.577-4.93 4-6.5l50-13c-6.706-6.37-13.706-12.37-21-18-1.293-.49-2.627-.66-4-.5-1.772-4.03-1.272-7.69 1.5-11a389.01 389.01 0 0 1 26.5-31l-1-1a246.6 246.6 0 0 1-45 11v-6c8.953-4.3 18.286-7.8 28-10.5l8-5a1483.04 1483.04 0 0 1-49-6c-1.607-1.05-2.273-2.55-2-4.5 17.806.14 35.639.81 53.5 2l12.5-.5a7.35 7.35 0 0 1 3-2L617 973.5c-2.035-3.061-3.201-6.395-3.5-10a4.85 4.85 0 0 1 4 1c2.307 5.639 5.807 10.305 10.5 14a369.27 369.27 0 0 1 11.5 22c5.441-7.548 12.774-10.381 22-8.5 1.227 1.587.894 2.921-1 4 1.431.465 2.597 1.299 3.5 2.5 13.93-11.932 28.43-23.099 43.5-33.5l5-7a8.43 8.43 0 0 1 4-.5c-.255 2.516-1.089 4.85-2.5 7a900.1 900.1 0 0 1-38.5 47zm19-32l-34 27c1.445 1.56 3.111 2.9 5 4 5.893-2.69 10.06-7.03 12.5-13 1.309-2.391 2.309-2.391 3 0l15.5-17.5c-.594-.464-1.261-.631-2-.5zm-72 67a659.78 659.78 0 0 1 23-19.5l2-5 7.5.5 2-4 1 1 3.5-3.5c-.691-1.07-1.191-2.23-1.5-3.5a23.97 23.97 0 0 1-7.5-7.5c1.856-1.55 3.856-2.72 6-3.5-.813-1.31-1.813-2.481-3-3.5-4.612-1.304-8.445.196-11.5 4.5-2.419 2.34-2.919 5-1.5 8 5.358 1.73 6.525 5.07 3.5 10-8.745 7.91-16.578 16.57-23.5 26zm53-35c-2.522-.37-4.522.46-6 2.5 3.151 3.11 5.151 2.28 6-2.5zm-38 4c.209 1.42.709 2.76 1.5 4 3.708-3.16 3.208-4.49-1.5-4zm25 1c-.792 1.47-.792 2.8 0 4 15.29 8.22 16.29 7.05 3-3.5-.948-.48-1.948-.65-3-.5zm-53 14c8.873-1.07 17.206-3.74 25-8-1.491-1.51-3.324-2.51-5.5-3a578.84 578.84 0 0 1-19.5 11zm50-6c-.79 1.29-1.79 2.46-3 3.5l10.5 10.5c.798-3.04 1.965-5.88 3.5-8.5l-11-5.5zm19 4c-.283-.79-.783-1.46-1.5-2-.528 1.32-.028 1.98 1.5 2zm0 0c1.527-.07 2.527.59 3 2-1.527.07-2.527-.59-3-2zm5 9c-10.706-7.47-12.039-6.47-4 3l4-3zm-7 9c-1.223-2.77-2.723-5.44-4.5-8-1.297-1.28-2.464-1.12-3.5.5a85.31 85.31 0 0 0 8 7.5z" opacity=".498"/><path d="M566.5 959.5c1.152 1.334 2.152 2.834 3 4.5-1.59 3.013-2.757 6.18-3.5 9.5a45.02 45.02 0 0 1 .5-14z" class="H"/><path d="M696.5 961.5c.77 2.883-.063 5.55-2.5 8 .107-2.824.94-5.491 2.5-8z" class="C"/><path d="M801.5 961.5c4.082 1.812 3.915 3.479-.5 5l-1.5-1 2-4z" class="J"/><path d="M793.5 967.5c1.188 1.996.521 2.829-2 2.5.881-.708 1.547-1.542 2-2.5z" class="B"/><path d="M799.5 974.5h3c.05 2.09-.95 3.423-3 4-1.126-1.308-1.126-2.642 0-4z" opacity=".023"/><path d="M792.5 978.5c1.615 2.81.782 4.81-2.5 6-.667-1-.667-2 0-3 1.045-.873 1.878-1.873 2.5-3z" class="C"/><path d="M1021.5 978.5c1.75.749 2.75 2.083 3 4-.51 2.384-1.18 4.717-2 7-.82.886-1.82 1.219-3 1a38.44 38.44 0 0 1 2-12zm-457 5c2.923 3.743 3.757 8.076 2.5 13-1.63-1.731-2.797-3.731-3.5-6a50.88 50.88 0 0 0 1-7z" class="G"/><path d="M790.5 990.5c1.195.366 1.861 1.199 2 2.5-1.119 1.876-2.786 2.709-5 2.5-.19-2.459.81-4.126 3-5z" opacity=".023"/><path d="M700.5 996.5c.739-.131 1.406.036 2 .5-1.127 3.76-3.127 6.93-6 9.5-.433-3.83.9-7.168 4-10z" class="F"/><path d="M787.5 1000.5h3v4c-5.006.89-6.006-.44-3-4z" opacity=".025"/><path d="M780.5 1005.5c-.386 2.44-1.553 4.44-3.5 6-1.122-3.37.045-5.37 3.5-6zm6 4c1.965.45 2.298 1.45 1 3-.886-.82-1.219-1.82-1-3z" class="D"/><path d="M777.5 1013.5c2.392 1.24 2.225 2.58-.5 4-.579-1.43-.412-2.76.5-4z" class="B"/><path d="M695.5 1019.5c2.11 2.67 1.61 5.34-1.5 8-.718-2.91-.218-5.57 1.5-8z" class="I"/><path d="M777.5 1030.5c1.127.62 2.127 1.46 3 2.5-2.667 2.53-5.667 4.36-9 5.5.845-3.51 2.845-6.18 6-8z" opacity=".077"/><path d="M537.5 1034.5c1.508 2.91.675 5.24-2.5 7-.317-2.71.516-5.04 2.5-7z" class="B"/><path d="M563.5 1037.5a308.87 308.87 0 0 0 4.5 18l1 14c2.846 3.42 3.18 7.09 1 11a166.76 166.76 0 0 1-6.5-43z" opacity=".02"/><path d="M778.5 1038.5h3v4a14.81 14.81 0 0 0-7.5 3c-.667-1.33-.667-2.67 0-4 1.652-.9 3.152-1.9 4.5-3z" class="F"/><path d="M549.5 1052.5c1.837.14 2.17.81 1 2-.798-.46-1.131-1.12-1-2z" class="D"/><path d="M773.5 1060.5c3.623.91 3.79 2.24.5 4-1.511-1.06-1.677-2.4-.5-4z" class="E"/><path d="M539.5 1063.5c1.113 1.45 1.28 3.11.5 5a66.21 66.21 0 0 0-8 8c-1.365-1.09-1.699-2.43-1-4 1.532-2.06 3.532-3.4 6-4l2.5-5z" class="J"/><path d="M678.5 1063.5c.876-.13 1.543.2 2 1-1.376 3.55-3.376 6.71-6 9.5-1.225.56-2.225.23-3-1 2.465-3.11 4.798-6.27 7-9.5z" class="C"/><path d="M648.5 1065.5c2.484 1.53 2.318 3.19-.5 5-.64-1.77-.473-3.43.5-5z" class="I"/><path d="M757.5 1082.5c.876-.13 1.543.2 2 1-4.079 5.4-4.745 5.07-2-1z" class="B"/><path d="M675.5 1087.5c.515 5.01-1.318 9.34-5.5 13 .754-4.75 2.587-9.09 5.5-13z" class="F"/><path d="M519.5 1093.5c2.793.24 3.293 1.24 1.5 3-1.039-.74-1.539-1.74-1.5-3z" class="G"/><path d="M764.5 1101.5c1.837.14 2.17.81 1 2-.798-.46-1.131-1.12-1-2z" class="B"/><path d="M668.5 1111.5c2.473.45 2.64 1.45.5 3a4.94 4.94 0 0 1-.5-3z" class="D"/><path d="M674.5 1116.5a7.11 7.11 0 0 1 1-5c1.134 1.94.8 3.61-1 5z" class="B"/><path d="M637.5 1131.5c2.086.65 3.086 2.15 3 4.5.112 1.66-.554 2.83-2 3.5-.98-2.59-1.313-5.25-1-8z" class="E"/><path d="M660.5 1137.5a4.85 4.85 0 0 1 1-4c1.309 1.74.976 3.07-1 4z" class="D"/><path d="M630.5 1152.5c2.663 1.61 3.163 3.61 1.5 6-1.319-1.75-1.819-3.75-1.5-6z" class="H"/><path d="M744.5 1156.5a6.92 6.92 0 0 1-1-4c2.584.07 4.584 1.24 6 3.5-1.634.49-3.301.66-5 .5zm-107 9c2.424 1.73 2.59 3.73.5 6-1.8-1.87-1.966-3.87-.5-6z" opacity=".007"/><defs ><path id="B" d="M820.5 793.5c1.297 1.349 1.13 2.682-.5 4-.579-1.428-.412-2.762.5-4z"/></defs></svg>